<?xml version="1.0" encoding="UTF-8"?>
<svg id="Layer_1" xmlns="http://www.w3.org/2000/svg" version="1.1" viewBox="0 0 2000 2000">
  <!-- Generator: Adobe Illustrator 29.6.0, SVG Export Plug-In . SVG Version: 2.1.1 Build 207)  -->
  <defs>
    <style>
      .st0 {
        fill: #84888f;
      }

      .st1 {
        opacity: .9;
      }

      .st1, .st2, .st3, .st4, .st5 {
        fill: #fff;
      }

      .st1, .st3, .st6, .st7, .st8, .st9, .st4, .st10, .st5 {
        isolation: isolate;
      }

      .st11 {
        fill: #4d61fc;
      }

      .st12 {
        fill: #21252b;
      }

      .st13, .st7 {
        opacity: .15;
      }

      .st14, .st8, .st4 {
        opacity: .2;
      }

      .st15 {
        fill: #3f4249;
      }

      .st3 {
        opacity: .7;
      }

      .st6, .st16 {
        opacity: .3;
      }

      .st6, .st17 {
        fill: #61656d;
      }

      .st18 {
        fill: #fb9c9c;
      }

      .st19 {
        fill: #868a91;
      }

      .st9 {
        opacity: .5;
      }

      .st9, .st20 {
        fill: #f4f4f4;
      }

      .st21 {
        fill: #fc9d9d;
      }

      .st10 {
        opacity: .6;
      }

      .st22 {
        fill: #dcdcdc;
      }

      .st5 {
        opacity: .8;
      }

      .st23 {
        fill: #f59696;
      }

      .st24 {
        fill: #fa9b9b;
      }

      .st25 {
        fill: #f3f3f3;
      }
    </style>
  </defs>
  <path class="st20" d="M121.38,1742.83L15.95,977.54c-1.77-12.8-.9-25.82,2.57-38.27,3.47-12.44,9.47-24.04,17.61-34.07l404.82-498.42c14.69-18.07,35.55-30.05,58.56-33.64l739.67-115.73c12.72-1.99,25.7-1.36,38.17,1.87,12.46,3.22,24.13,8.97,34.28,16.87l637.01,496.1c15.24,11.88,26.48,28.15,32.16,46.63,5.67,18.47,5.53,38.25-.4,56.64l-280.04,867.26-1578.97.05Z"/>
  <path class="st22" d="M1198.25,395.66l-221.29,45.23c-3.32.68-6.41,2.22-8.95,4.47-2.54,2.25-4.44,5.13-5.52,8.35l-71.47,214.25c-1.07,3.22-1.28,6.66-.6,9.99.68,3.32,2.22,6.41,4.47,8.95l149.81,169.02c2.25,2.54,5.13,4.44,8.35,5.52,3.22,1.07,6.66,1.28,9.99.61l221.24-45.23c3.32-.68,6.41-2.22,8.95-4.47,2.54-2.25,4.44-5.13,5.52-8.35l71.47-214.25c1.08-3.22,1.28-6.66.61-9.99-.69-3.33-2.22-6.41-4.47-8.95l-149.76-169.02c-2.25-2.54-5.13-4.44-8.35-5.51-3.22-1.07-6.66-1.29-9.99-.61h0Z"/>
  <path class="st11" d="M1085.38,636.02l-11.37,4.31-32.23,16.49c-.19.29-13.46,3.89-9.71,21.31.59,2.67,1.19,5.42,1.83,8.18,9.24,40.09,4.68,49.37,10.28,74.77,7.96,36.22,43.23,31.69,59.68,68.51,27.97,62.64,22.2,108.03,22.2,108.03l204.67-69.37s0-1.53-2.91-7.27c-4.56-8.52-9.62-16.77-15.14-24.71-19.56-29-39.35-121.11-39.35-121.11l-8.95-60.32c-5.6-37.78-79.77-52.28-79.77-52.28l-99.25,33.47Z"/>
  <path class="st25" d="M1086.83,729.12c.48.09.99.03,1.44-.16.45-.2.84-.52,1.1-.94.27-.41.41-.9.4-1.39,0-.49-.16-.97-.44-1.38-.28-.4-.67-.72-1.13-.9-.46-.18-.96-.22-1.44-.12-.48.1-.92.35-1.26.7-.34.35-.57.8-.66,1.29-.07.32-.06.65,0,.98.07.32.2.63.38.9.19.27.43.5.7.67.28.17.59.29.91.34h0Z"/>
  <path class="st25" d="M1211.02,695.92c.48.09.99.03,1.44-.16.45-.2.84-.52,1.1-.94s.41-.9.4-1.39c0-.49-.16-.97-.44-1.38-.28-.41-.67-.72-1.13-.9-.46-.18-.96-.22-1.44-.12s-.92.35-1.26.7c-.34.35-.57.8-.66,1.29-.06.32-.06.65,0,.98.07.32.2.63.38.9.19.27.43.5.7.67.28.17.59.29.91.34h0Z"/>
  <path class="st25" d="M1215.43,650.28c.48.09.98.03,1.44-.16.45-.2.83-.52,1.1-.94s.41-.9.4-1.39c0-.49-.16-.97-.44-1.38-.28-.4-.67-.72-1.13-.9-.46-.18-.96-.22-1.44-.12-.48.1-.92.35-1.26.7-.34.35-.57.8-.66,1.29-.07.32-.07.65,0,.98.07.32.2.63.38.9.19.27.43.5.7.67.28.17.59.29.91.34h0Z"/>
  <path class="st25" d="M1040.27,674.22c.48.09.98.03,1.44-.16.45-.2.84-.52,1.1-.94.27-.41.41-.9.4-1.39,0-.49-.16-.97-.44-1.38-.28-.41-.67-.72-1.13-.9-.46-.18-.96-.22-1.44-.12-.48.1-.92.35-1.26.7-.34.35-.57.8-.66,1.29-.07.32-.07.65,0,.98.07.32.2.63.38.9.19.27.43.5.7.68.28.17.59.29.91.34h0Z"/>
  <path class="st25" d="M1095.17,775.87c.48.09.99.03,1.44-.16.45-.2.84-.52,1.1-.94s.41-.9.4-1.39c0-.49-.16-.97-.44-1.38-.28-.4-.67-.72-1.13-.9-.46-.18-.96-.22-1.44-.12-.48.1-.92.35-1.26.7-.34.35-.57.8-.66,1.29-.07.32-.06.65,0,.98.07.32.2.63.38.9.19.27.43.5.7.67.28.18.59.29.91.34h0Z"/>
  <path class="st25" d="M1061.72,752.42c.48.09.98.03,1.44-.16.45-.2.84-.52,1.1-.93.27-.41.41-.9.4-1.39,0-.49-.16-.97-.44-1.38-.28-.41-.67-.72-1.13-.9-.46-.18-.96-.22-1.44-.12-.48.1-.92.35-1.26.7-.34.35-.57.8-.66,1.29-.07.32-.07.65,0,.98.07.32.2.63.38.9.19.27.43.5.7.68.28.17.59.29.91.34h0Z"/>
  <path class="st25" d="M1125.47,724.14c.48.09.98.03,1.44-.16.45-.2.84-.52,1.1-.94s.41-.9.4-1.39-.16-.97-.44-1.38c-.28-.4-.67-.72-1.13-.9-.46-.18-.96-.22-1.44-.12-.48.1-.92.35-1.26.7-.34.35-.57.8-.66,1.29-.07.32-.07.65,0,.98.07.32.2.63.38.9.19.27.43.5.7.67.28.18.59.29.91.34h0Z"/>
  <path class="st25" d="M1225.2,729.12c.48.09.98.03,1.44-.16.45-.2.84-.52,1.1-.94.27-.41.41-.9.4-1.39s-.16-.97-.44-1.38c-.28-.4-.67-.72-1.13-.9-.46-.18-.96-.22-1.44-.12-.48.1-.92.35-1.26.7-.34.35-.57.8-.66,1.29-.07.32-.07.65,0,.98.07.32.2.63.38.9.19.27.43.5.7.67.28.17.59.29.91.34h0Z"/>
  <path class="st25" d="M1207.37,760.45c.48.09.98.03,1.43-.16.45-.2.84-.52,1.1-.94s.41-.9.4-1.39c0-.49-.16-.97-.44-1.38-.28-.41-.67-.72-1.13-.9-.46-.18-.96-.22-1.44-.12-.48.1-.92.35-1.26.7-.34.35-.57.8-.66,1.29-.07.32-.07.65,0,.98.07.32.2.63.38.9.19.27.43.5.7.67.28.18.59.29.91.34h0Z"/>
  <path class="st25" d="M1127.59,793.68c.48.09.98.03,1.44-.16.45-.2.84-.52,1.1-.94.27-.41.41-.9.4-1.39,0-.49-.16-.97-.44-1.38-.28-.4-.67-.72-1.13-.9-.46-.18-.96-.22-1.44-.12-.48.1-.92.35-1.26.7-.34.35-.57.8-.66,1.29-.07.32-.07.65,0,.98.07.32.2.63.38.9.19.27.43.5.7.67s.59.29.91.34h0Z"/>
  <path class="st25" d="M1178.74,670.3c.48.09.98.03,1.44-.16.45-.2.84-.52,1.1-.94.27-.41.41-.9.4-1.39s-.16-.97-.44-1.38c-.28-.41-.67-.72-1.13-.9-.46-.18-.96-.22-1.44-.12-.48.1-.92.35-1.26.7-.34.35-.57.8-.66,1.29-.07.32-.07.65,0,.98.07.32.2.63.38.9.19.27.43.5.7.68.28.17.59.29.91.34h0Z"/>
  <path class="st25" d="M1217.92,621.35c.48.09.98.03,1.44-.16.45-.2.84-.52,1.1-.94s.41-.9.4-1.39c0-.49-.16-.97-.44-1.38-.28-.41-.67-.72-1.13-.9-.46-.18-.96-.22-1.44-.12-.48.1-.92.35-1.26.7-.34.35-.57.8-.66,1.29-.07.32-.07.65,0,.98.07.32.2.63.38.9.19.27.43.5.7.67.28.17.59.29.91.34h0Z"/>
  <path class="st25" d="M1094.35,667.79c.48.09.98.03,1.44-.16.45-.2.84-.52,1.1-.94s.41-.9.4-1.39-.16-.97-.44-1.38c-.28-.4-.67-.72-1.13-.9-.46-.18-.96-.22-1.44-.12-.48.1-.92.35-1.26.7-.34.35-.57.8-.66,1.29-.07.32-.07.65,0,.98.07.32.2.63.38.9.19.27.43.5.7.67.28.18.59.29.91.34h0Z"/>
  <path class="st25" d="M1171.58,759.42c.48.09.98.03,1.44-.16.45-.2.84-.52,1.1-.94s.41-.9.4-1.39c0-.49-.16-.97-.44-1.38-.28-.41-.67-.72-1.13-.9-.46-.18-.96-.22-1.44-.12-.48.1-.92.35-1.26.7-.34.35-.57.8-.66,1.29-.07.32-.06.65,0,.98.07.32.2.63.38.9.19.27.43.5.7.67.28.17.59.29.91.34h0Z"/>
  <path class="st25" d="M1133.42,762.94c.48.09.98.03,1.44-.16.45-.2.83-.52,1.1-.93s.41-.9.4-1.39c0-.49-.16-.97-.44-1.38-.28-.41-.67-.72-1.13-.9-.46-.18-.96-.22-1.44-.12-.48.1-.92.35-1.26.7-.34.35-.57.8-.66,1.29-.07.32-.07.66-.01.98.06.32.19.63.38.9.19.27.43.5.71.67.28.17.59.29.92.34Z"/>
  <path class="st25" d="M1156.44,704.75c.48.09.98.03,1.44-.16.45-.2.84-.52,1.1-.94s.41-.9.4-1.39c0-.49-.16-.97-.44-1.38-.28-.41-.67-.72-1.13-.9-.46-.18-.96-.22-1.44-.12-.48.1-.92.35-1.26.7-.34.35-.57.8-.66,1.29-.07.32-.06.65,0,.98.07.32.2.63.38.9.19.27.43.5.7.67.28.17.59.29.91.34h0Z"/>
  <path class="st25" d="M1187.99,722.48c.48.09.98.03,1.44-.16.45-.2.84-.52,1.1-.94.27-.41.41-.9.4-1.39,0-.49-.16-.97-.44-1.38-.28-.41-.67-.72-1.13-.9-.46-.18-.96-.22-1.44-.12-.48.1-.92.35-1.26.7-.34.35-.57.8-.66,1.29-.07.32-.07.65,0,.98.07.32.2.63.38.9.19.27.43.5.7.67.28.17.59.29.91.34h0Z"/>
  <path class="st25" d="M1122.98,689.96c.48.09.98.03,1.44-.16.45-.2.84-.52,1.1-.94.27-.41.41-.9.4-1.39,0-.49-.16-.97-.44-1.38s-.67-.72-1.13-.9c-.46-.18-.96-.22-1.44-.12s-.92.35-1.26.7c-.34.35-.57.8-.66,1.29-.07.32-.07.65,0,.98.07.32.2.63.38.9.19.27.43.5.7.67.28.17.59.29.91.34h0Z"/>
  <path class="st25" d="M1141.95,666.6c.48.09.98.03,1.44-.16.45-.2.84-.52,1.1-.94.27-.41.41-.9.4-1.39,0-.49-.16-.97-.44-1.38-.28-.41-.67-.72-1.13-.9-.46-.18-.96-.22-1.44-.12-.48.1-.92.35-1.26.7-.34.35-.57.8-.66,1.29-.07.32-.07.65,0,.98.07.32.2.63.38.9.19.27.43.5.7.67.28.18.59.29.91.34h0Z"/>
  <path class="st25" d="M1187.25,635.28c.48.09.98.03,1.44-.16.45-.2.83-.52,1.1-.94.27-.41.41-.9.4-1.39,0-.49-.16-.97-.44-1.38-.28-.4-.67-.72-1.13-.9-.46-.18-.96-.22-1.44-.12-.48.1-.92.35-1.26.7-.34.35-.57.8-.66,1.29-.07.32-.07.65,0,.98.07.32.2.63.38.9.19.27.43.5.7.67.28.17.59.29.91.34Z"/>
  <path class="st11" d="M722.7,808.62h694.17c1.35,0,2.67.31,3.89.89,1.21.59,2.27,1.43,3.11,2.49s1.43,2.28,1.73,3.59c.3,1.31.3,2.67,0,3.99l-96.42,425.21c-.45,1.98-1.56,3.74-3.15,5.01-1.58,1.26-3.55,1.95-5.58,1.96h-694.17c-1.34,0-2.67-.31-3.88-.89-1.21-.58-2.27-1.43-3.11-2.49-.84-1.05-1.43-2.28-1.73-3.59-.3-1.31-.3-2.67,0-3.98l96.49-425.21c.45-1.97,1.55-3.73,3.12-4.99,1.57-1.26,3.53-1.96,5.54-1.97Z"/>
  <path class="st4" d="M722.7,808.62h694.17c1.35,0,2.67.31,3.89.89,1.21.59,2.27,1.43,3.11,2.49s1.43,2.28,1.73,3.59c.3,1.31.3,2.67,0,3.99l-96.42,425.21c-.45,1.98-1.56,3.74-3.15,5.01-1.58,1.26-3.55,1.95-5.58,1.96h-694.17c-1.34,0-2.67-.31-3.88-.89-1.21-.58-2.27-1.43-3.11-2.49-.84-1.05-1.43-2.28-1.73-3.59-.3-1.31-.3-2.67,0-3.98l96.49-425.21c.45-1.97,1.55-3.73,3.12-4.99,1.57-1.26,3.53-1.96,5.54-1.97Z"/>
  <path class="st11" d="M707.02,808.62h694.17c1.35,0,2.67.31,3.89.89,1.21.59,2.27,1.43,3.11,2.49s1.43,2.28,1.73,3.59c.3,1.31.3,2.67,0,3.99l-96.42,425.21c-.45,1.98-1.56,3.74-3.15,5.01-1.58,1.26-3.55,1.95-5.58,1.96h-694.15c-1.35,0-2.67-.31-3.88-.89-1.21-.58-2.27-1.43-3.11-2.49-.84-1.05-1.43-2.28-1.73-3.59-.3-1.31-.3-2.67,0-3.98l96.42-425.21c.45-1.98,1.56-3.74,3.14-5.01,1.58-1.26,3.55-1.96,5.57-1.96Z"/>
  <path class="st3" d="M707.02,808.62h694.17c1.35,0,2.67.31,3.89.89,1.21.59,2.27,1.43,3.11,2.49s1.43,2.28,1.73,3.59c.3,1.31.3,2.67,0,3.99l-96.42,425.21c-.45,1.98-1.56,3.74-3.15,5.01-1.58,1.26-3.55,1.95-5.58,1.96h-694.15c-1.35,0-2.67-.31-3.88-.89-1.21-.58-2.27-1.43-3.11-2.49-.84-1.05-1.43-2.28-1.73-3.59-.3-1.31-.3-2.67,0-3.98l96.42-425.21c.45-1.98,1.56-3.74,3.14-5.01,1.58-1.26,3.55-1.96,5.57-1.96Z"/>
  <path class="st11" d="M865.43,891.08h-136.09c-2.34,0-4.58-.94-6.24-2.59-1.66-1.66-2.59-3.9-2.59-6.24l8.78-33.96c0-2.34.94-4.59,2.59-6.24,1.66-1.66,3.9-2.59,6.24-2.59h136.09c2.34,0,4.59.94,6.24,2.59,1.65,1.66,2.59,3.9,2.59,6.24l-8.78,33.96c0,2.34-.94,4.58-2.59,6.24-1.66,1.66-3.9,2.59-6.24,2.59h0ZM738.1,841.71c-1.75,0-3.42.7-4.66,1.94-1.23,1.23-1.93,2.91-1.94,4.66l-8.78,33.96c0,1.75.7,3.42,1.94,4.66,1.24,1.23,2.91,1.93,4.66,1.94h136.1c1.75,0,3.42-.7,4.66-1.94,1.24-1.24,1.93-2.91,1.94-4.66l8.78-33.96c0-1.75-.7-3.42-1.94-4.66-1.23-1.24-2.91-1.93-4.66-1.94h-136.1Z"/>
  <path class="st11" d="M1056.35,891.08h-136.09c-2.34,0-4.59-.94-6.24-2.59-1.66-1.66-2.59-3.9-2.59-6.24l8.78-33.96c0-2.34.94-4.59,2.59-6.24,1.66-1.66,3.9-2.59,6.24-2.59h136.09c2.34,0,4.58.94,6.24,2.59,1.66,1.66,2.59,3.9,2.59,6.24l-8.78,33.96c0,2.34-.94,4.58-2.59,6.24-1.66,1.66-3.9,2.59-6.24,2.59h0ZM929.03,841.71c-1.75,0-3.42.7-4.66,1.94-1.24,1.23-1.93,2.91-1.94,4.66l-8.78,33.96c0,1.75.7,3.42,1.94,4.66s2.91,1.93,4.66,1.94h136.09c1.75,0,3.42-.7,4.66-1.94,1.23-1.24,1.93-2.91,1.94-4.66l8.78-33.96c0-1.75-.7-3.42-1.94-4.66-1.24-1.24-2.91-1.93-4.66-1.94h-136.09Z"/>
  <path class="st11" d="M1038.18,959.93h-196.31c-1.82,0-3.57-.72-4.85-2.01s-2.01-3.03-2.01-4.85h0c0-1.82.72-3.57,2.01-4.85,1.29-1.29,3.03-2.01,4.85-2.01h196.31c1.82,0,3.57.72,4.85,2.01,1.29,1.29,2.01,3.03,2.01,4.85h0c0,.9-.17,1.79-.52,2.63-.34.83-.85,1.59-1.49,2.23s-1.4,1.14-2.23,1.49c-.83.34-1.73.52-2.63.52h0Z"/>
  <path class="st11" d="M923.9,1012.41h-88.45c-.9,0-1.79-.18-2.63-.52-.83-.34-1.59-.85-2.23-1.49-.64-.64-1.14-1.39-1.49-2.23s-.52-1.72-.52-2.63.18-1.79.52-2.63.85-1.59,1.49-2.23,1.39-1.14,2.23-1.49c.83-.34,1.72-.52,2.63-.52h88.45c.9,0,1.79.18,2.63.52.83.34,1.59.85,2.23,1.49s1.14,1.39,1.49,2.23c.34.83.52,1.72.52,2.63,0,.9-.17,1.79-.52,2.63-.34.83-.85,1.59-1.49,2.23-.64.64-1.39,1.14-2.23,1.49-.83.34-1.73.52-2.63.52h0Z"/>
  <path class="st1" d="M1038.18,959.93h-196.31c-1.82,0-3.57-.72-4.85-2.01s-2.01-3.03-2.01-4.85h0c0-1.82.72-3.57,2.01-4.85,1.29-1.29,3.03-2.01,4.85-2.01h196.31c1.82,0,3.57.72,4.85,2.01,1.29,1.29,2.01,3.03,2.01,4.85h0c0,.9-.17,1.79-.52,2.63-.34.83-.85,1.59-1.49,2.23s-1.4,1.14-2.23,1.49c-.83.34-1.73.52-2.63.52h0Z"/>
  <path class="st1" d="M923.9,1012.41h-88.45c-.9,0-1.79-.18-2.63-.52-.83-.34-1.59-.85-2.23-1.49-.64-.64-1.14-1.39-1.49-2.23s-.52-1.72-.52-2.63.18-1.79.52-2.63.85-1.59,1.49-2.23,1.39-1.14,2.23-1.49c.83-.34,1.72-.52,2.63-.52h88.45c.9,0,1.79.18,2.63.52.83.34,1.59.85,2.23,1.49s1.14,1.39,1.49,2.23c.34.83.52,1.72.52,2.63,0,.9-.17,1.79-.52,2.63-.34.83-.85,1.59-1.49,2.23-.64.64-1.39,1.14-2.23,1.49-.83.34-1.73.52-2.63.52h0Z"/>
  <path class="st11" d="M1095.73,959.93h-23.55c-1.82,0-3.57-.72-4.85-2.01-1.29-1.29-2.01-3.03-2.01-4.85s.72-3.57,2.01-4.85,3.03-2.01,4.85-2.01h23.55c1.82,0,3.57.72,4.85,2.01s2.01,3.03,2.01,4.85h0c0,1.82-.72,3.57-2.01,4.85-1.29,1.29-3.03,2.01-4.85,2.01h0Z"/>
  <path class="st11" d="M798.59,967.15h-17.78c-.76,0-1.51-.17-2.2-.49-.69-.32-1.29-.8-1.77-1.39-.48-.59-.83-1.27-1.02-2.01-.19-.74-.21-1.51-.06-2.25l3.57-18c.23-1.17.86-2.22,1.78-2.98.92-.76,2.08-1.17,3.27-1.16h17.8c.76,0,1.51.17,2.2.49s1.29.8,1.77,1.38c.48.59.83,1.27,1.02,2.01.19.74.21,1.51.06,2.25l-3.57,18c-.24,1.17-.87,2.22-1.79,2.97-.92.75-2.08,1.17-3.27,1.16h0Z"/>
  <path class="st1" d="M798.59,967.15h-17.78c-.76,0-1.51-.17-2.2-.49-.69-.32-1.29-.8-1.77-1.39-.48-.59-.83-1.27-1.02-2.01-.19-.74-.21-1.51-.06-2.25l3.57-18c.23-1.17.86-2.22,1.78-2.98.92-.76,2.08-1.17,3.27-1.16h17.8c.76,0,1.51.17,2.2.49s1.29.8,1.77,1.38c.48.59.83,1.27,1.02,2.01.19.74.21,1.51.06,2.25l-3.57,18c-.24,1.17-.87,2.22-1.79,2.97-.92.75-2.08,1.17-3.27,1.16h0Z"/>
  <path class="st11" d="M789.23,1018.03h-17.8c-.76,0-1.51-.17-2.2-.49-.69-.32-1.29-.8-1.77-1.39-.48-.59-.83-1.27-1.02-2.01-.19-.74-.21-1.51-.06-2.25l3.57-18c.23-1.17.86-2.22,1.78-2.98.92-.76,2.08-1.17,3.27-1.16h17.8c.76,0,1.51.17,2.2.49.69.32,1.29.8,1.77,1.38.48.59.83,1.27,1.01,2.01.19.74.21,1.51.06,2.25l-3.57,18c-.23,1.17-.86,2.22-1.78,2.97-.92.75-2.07,1.17-3.26,1.17Z"/>
  <path class="st22" d="M139.82,1286.59c-3.19-41.56,6.01-83.13,26.46-119.46,20.44-36.33,51.19-65.77,88.37-84.62,37.18-18.84,79.11-26.24,120.5-21.24,41.38,4.99,80.35,22.15,111.99,49.29s54.5,63.06,65.71,103.21c11.21,40.15,10.27,82.72-2.72,122.32-12.98,39.61-37.43,74.48-70.23,100.19-32.81,25.71-72.5,41.12-114.06,44.27-27.58,2.11-55.3-1.24-81.58-9.85-26.28-8.61-50.61-22.31-71.6-40.32-20.99-18.01-38.22-39.98-50.72-64.65-12.49-24.67-20.01-51.56-22.11-79.14h0Z"/>
  <path class="st21" d="M562.12,1175.75l30.43-3.58c.91-.11,1.83.03,2.67.4.84.37,1.57.95,2.11,1.69.54.74.88,1.6.98,2.51.1.91-.04,1.83-.41,2.67l-3.3,7.38c-.62,1.4-1.52,2.66-2.63,3.71-1.12,1.05-2.43,1.87-3.86,2.41l-39.78,14.8,16.05-34.5"/>
  <g class="st13">
    <path class="st7" d="M562.12,1175.75l30.43-3.58c.91-.11,1.83.03,2.67.4.84.37,1.57.95,2.11,1.69.54.74.88,1.6.98,2.51.1.91-.04,1.83-.41,2.67l-3.3,7.38c-.62,1.4-1.52,2.66-2.63,3.71-1.12,1.05-2.43,1.87-3.86,2.41l-39.78,14.8"/>
  </g>
  <path class="st11" d="M688.94,1361.29l-144.66-80.07c-.82-.45-1.54-1.06-2.11-1.79-.58-.74-1-1.58-1.24-2.48-.24-.9-.3-1.84-.17-2.77.13-.92.44-1.81.92-2.61l111.98-187.96c.9-1.52,2.35-2.63,4.04-3.11,1.7-.48,3.51-.3,5.08.51l147.25,75.9c.84.43,1.58,1.03,2.18,1.76.6.73,1.04,1.57,1.3,2.48.26.91.33,1.86.21,2.79-.12.94-.43,1.84-.91,2.65l-114.5,192.18c-.93,1.55-2.42,2.68-4.17,3.15-1.75.47-3.61.24-5.19-.63h0Z"/>
  <path class="st9" d="M688.94,1361.29l-144.66-80.07c-.82-.45-1.54-1.06-2.11-1.79-.58-.74-1-1.58-1.24-2.48-.24-.9-.3-1.84-.17-2.77.13-.92.44-1.81.92-2.61l111.98-187.96c.9-1.52,2.35-2.63,4.04-3.11,1.7-.48,3.51-.3,5.08.51l147.25,75.9c.84.43,1.58,1.03,2.18,1.76.6.73,1.04,1.57,1.3,2.48.26.91.33,1.86.21,2.79-.12.94-.43,1.84-.91,2.65l-114.5,192.18c-.93,1.55-2.42,2.68-4.17,3.15-1.75.47-3.61.24-5.19-.63h0Z"/>
  <path class="st2" d="M681.62,1357.45l-144.66-80.07c-.82-.45-1.54-1.06-2.11-1.8-.58-.73-1-1.58-1.24-2.48-.24-.9-.3-1.84-.17-2.77s.44-1.81.92-2.61l111.98-187.96c.9-1.52,2.35-2.63,4.04-3.11,1.7-.48,3.51-.3,5.08.51l147.25,75.9c.84.43,1.58,1.03,2.18,1.76.6.73,1.04,1.58,1.3,2.48.26.91.33,1.86.21,2.79-.12.94-.43,1.84-.91,2.65l-114.5,192.2c-.93,1.55-2.43,2.67-4.17,3.14-1.74.47-3.6.24-5.18-.63h0Z"/>
  <path class="st21" d="M524.09,1212.94l19.73-33.51c2.68-4.56,6.96-7.95,12.01-9.52l34.74-10.87c1.06-.34,2.21-.27,3.22.2,1.01.47,1.8,1.31,2.22,2.35.42,1.03.42,2.19.02,3.23-.4,1.04-1.18,1.89-2.19,2.38l-28.39,14.18-12.94,25.23c-.3.59-.4,1.26-.28,1.91.13.65.47,1.24.97,1.67.5.43,1.14.68,1.8.7.66.02,1.31-.18,1.84-.57l13-9.59c2.05-1.48,4.58-2.14,7.1-1.85,2.51.3,4.83,1.53,6.48,3.45.38.46.58,1.03.58,1.61s-.2,1.16-.58,1.61l-46.86,55.8-48.11-14.77,35.63-33.64Z"/>
  <g class="st16">
    <path class="st6" d="M582.07,1258.75c-.14,0-.28-.04-.4-.1l-21.25-11.64c-.1-.06-.19-.13-.26-.22-.07-.09-.12-.19-.15-.3-.04-.11-.04-.23-.03-.35.02-.12.06-.23.13-.32l12.77-20.29c.11-.18.29-.31.5-.36.21-.05.43-.03.61.08l21.26,11.64c.1.05.19.13.26.22.07.09.12.19.15.3.03.11.04.23.03.35-.02.12-.06.23-.13.32l-12.73,20.29c-.08.13-.19.23-.32.3-.13.07-.28.1-.43.09ZM562.02,1245.9l19.77,10.83,11.88-18.87-19.78-10.83-11.86,18.87Z"/>
  </g>
  <g class="st16">
    <path class="st6" d="M601.06,1228.6c-.14,0-.28-.04-.4-.1l-21.19-11.64c-.1-.05-.19-.13-.26-.22-.07-.09-.12-.19-.15-.3-.03-.11-.04-.23-.03-.35.02-.12.06-.23.13-.32l12.78-20.29c.11-.18.29-.31.5-.36.21-.05.42-.03.61.08l21.25,11.64c.1.05.19.13.26.22.07.09.12.19.15.3.04.11.04.23.03.35-.02.12-.06.23-.13.32l-12.77,20.29c-.08.13-.19.24-.33.31-.14.07-.29.1-.44.08h0ZM580.99,1215.82l19.78,10.83,11.86-18.87-19.71-10.83-11.93,18.87Z"/>
  </g>
  <path class="st11" d="M574.99,1248.69l-1.18-9.52c-.02-.25.06-.49.21-.69.15-.2.37-.33.61-.37l2.51-.3c.25-.02.49.06.69.21.2.15.33.37.37.61l.76,6.12,14.79-1.85c.25-.02.49.06.69.21.2.15.33.37.37.61l.3,2.51c.02.25-.05.49-.21.69-.15.2-.37.33-.62.37l-18.18,2.25c-.13.02-.26,0-.38-.03-.12-.03-.24-.09-.34-.17-.1-.08-.18-.18-.25-.29-.06-.11-.1-.24-.11-.36"/>
  <path class="st11" d="M594.21,1218.52l-1.18-9.52c-.02-.25.06-.49.21-.69.15-.2.37-.33.61-.37l2.51-.3c.25-.02.49.06.69.21.2.15.33.37.37.61l.76,6.12,14.79-1.85c.25-.02.49.06.69.21.2.15.33.37.37.61l.3,2.51c.02.25-.05.49-.21.69-.15.2-.37.33-.62.37l-18.22,2.25c-.26.03-.51-.05-.71-.21-.2-.16-.33-.4-.36-.65"/>
  <path class="st6" d="M661.97,1298.48l-66.21-36.79c-.41-.23-.72-.62-.85-1.08-.13-.46-.07-.95.16-1.36h0c.23-.41.62-.72,1.08-.85.46-.13.95-.07,1.36.16l66.21,36.79c.41.23.72.62.85,1.08.13.46.07.95-.16,1.36h0c-.24.41-.62.71-1.08.84-.46.13-.94.07-1.36-.15Z"/>
  <path class="st6" d="M635.65,1273.99l-35.54-19.68c-.41-.23-.72-.62-.85-1.08-.13-.46-.07-.95.16-1.36.23-.41.62-.72,1.08-.85.46-.13.95-.07,1.36.16l35.54,19.71c.41.23.72.62.85,1.08.13.46.07.95-.16,1.36h0c-.12.2-.27.38-.46.52-.19.14-.4.25-.62.31-.23.06-.46.08-.7.05-.23-.03-.46-.11-.66-.22h0Z"/>
  <path class="st6" d="M680.54,1266.31l-66.21-36.79c-.41-.23-.72-.62-.85-1.08-.13-.46-.07-.95.16-1.36h0c.23-.41.62-.72,1.08-.85.46-.13.95-.07,1.36.16l66.21,36.79c.41.23.72.62.85,1.08.13.46.07.95-.16,1.36-.24.41-.62.71-1.08.84s-.94.07-1.36-.15Z"/>
  <path class="st6" d="M654.22,1241.82l-35.54-19.71c-.41-.23-.72-.62-.85-1.08-.13-.46-.07-.95.16-1.36h0c.23-.41.62-.72,1.08-.85.46-.13.95-.07,1.36.16l35.54,19.71c.41.23.72.62.85,1.08.13.46.07.95-.16,1.36-.23.41-.62.72-1.08.85-.46.13-.95.07-1.36-.16Z"/>
  <path d="M720.88,1266.62c-.15,0-.29-.04-.42-.12-4.71-2.76-10.41-3.23-15.43-3.63-5.01-.4-9.2-.76-10.51-3.53-1.31-2.78.91-12.57,4.71-28.11,4.76-19.4,11.29-45.97,5.05-49.34-3.68-1.95-12.83,3.21-19.53,6.98-2.62,1.48-4.9,2.76-6.73,3.55h-.17c-1.29.56-2.69.79-4.09.69-1.4-.1-2.75-.53-3.95-1.26-1.32-.79-2.43-1.88-3.24-3.18-.82-1.3-1.32-2.77-1.47-4.3-.54-5.7.57-13.79,1.68-21.63,1.46-10.66,3.11-22.76-.57-24.73-4.19-2.2-16.65,8.24-24.11,14.5-2.69,2.27-5.05,4.22-6.51,5.21-6.49,4.42-14.84,2.02-15.14,1.92-.11-.03-.21-.08-.3-.15-.09-.07-.16-.16-.22-.26-.11-.2-.14-.44-.08-.66.06-.22.21-.41.41-.52.2-.11.44-.14.66-.08,0,0,7.94,2.27,13.78-1.68,1.4-.96,3.7-2.89,6.38-5.05,10.95-9.18,21.18-17.24,25.97-14.69,4.79,2.56,3.2,13.61,1.45,26.44-1.06,7.74-2.15,15.73-1.68,21.23.12,1.27.53,2.49,1.2,3.57.67,1.08,1.59,1.98,2.68,2.64.97.59,2.06.94,3.19,1.02,1.13.09,2.26-.1,3.31-.54h.17c1.68-.76,4.04-2.09,6.51-3.48,7.44-4.19,16.67-9.4,21.18-7,7.44,3.99,1.28,29.07-4.17,51.22-2.94,12.04-6.01,24.49-4.83,27,.89,1.88,4.71,2.2,9.13,2.56,4.95.4,11.1.91,16.13,3.87.16.09.28.24.35.41.07.17.08.36.03.53-.05.18-.15.33-.3.45s-.32.17-.51.17l-.02-.02Z"/>
  <path class="st11" d="M666.33,1139.75c1.39,0,2.52-1.13,2.52-2.52s-1.13-2.52-2.52-2.52-2.52,1.13-2.52,2.52,1.13,2.52,2.52,2.52Z"/>
  <path class="st11" d="M686.65,1189.26c1.39,0,2.52-1.13,2.52-2.52s-1.13-2.52-2.52-2.52-2.52,1.13-2.52,2.52,1.13,2.52,2.52,2.52Z"/>
  <path class="st11" d="M711.27,1265.27c1.39,0,2.52-1.13,2.52-2.52s-1.13-2.52-2.52-2.52-2.52,1.13-2.52,2.52,1.13,2.52,2.52,2.52Z"/>
  <path d="M764.75,1119.73l-13.79-7.59c1.29-2.35,2.1-4.93,2.4-7.59.29-2.66.06-5.36-.69-7.93-.75-2.57-1.99-4.97-3.67-7.06-1.68-2.09-3.75-3.83-6.09-5.12-2.35-1.29-4.93-2.1-7.59-2.4-2.66-.29-5.35-.06-7.93.69-2.57.75-4.97,2-7.06,3.67s-3.83,3.75-5.12,6.09l-13.79-7.59c-.39-.22-.82-.35-1.26-.4-.44-.05-.89-.01-1.32.11-.43.12-.82.33-1.17.61-.35.28-.63.62-.85,1.01l-16.82,30.77c-.22.39-.35.82-.4,1.26-.05.44-.01.89.11,1.32.12.43.33.82.61,1.17.28.35.62.64,1.01.85l63.33,34.8c.39.22.82.35,1.26.4.44.05.89.01,1.32-.11.43-.12.82-.33,1.17-.61.35-.28.64-.62.85-1.01l16.91-30.77c.21-.39.35-.83.39-1.27.04-.45,0-.89-.13-1.32-.13-.43-.35-.83-.63-1.17-.29-.34-.64-.63-1.04-.83h0ZM739.27,1105.64c-.67,1.22-1.69,2.21-2.92,2.85-1.23.64-2.63.9-4.01.75-1.38-.15-2.69-.71-3.75-1.61-1.06-.89-1.84-2.08-2.23-3.42-.39-1.34-.37-2.76.05-4.08.42-1.33,1.22-2.5,2.31-3.37,1.09-.87,2.4-1.4,3.79-1.52,1.38-.12,2.78.17,3.99.84,1.63.9,2.84,2.41,3.36,4.2.52,1.79.31,3.72-.59,5.35h0Z"/>
  <path class="st2" d="M693.01,1109.39l55.51,30.51c.39.21.74.5,1.01.85.28.35.49.75.61,1.17.12.43.16.87.11,1.32-.05.44-.19.87-.4,1.26l-2.51,4.54c-.21.39-.5.73-.85,1.01-.35.28-.75.49-1.17.61-.43.12-.87.16-1.32.11-.44-.05-.87-.19-1.26-.4l-55.51-30.51c-.39-.21-.74-.5-1.01-.85-.28-.35-.49-.75-.61-1.17-.12-.43-.16-.87-.11-1.32.05-.44.19-.87.4-1.26l2.51-4.54c.21-.39.5-.74.85-1.01.35-.28.74-.48,1.17-.61.43-.12.87-.16,1.32-.11.44.05.87.19,1.26.4Z"/>
  <path class="st11" d="M444.22,1267.29l67.57-42.74,29.79,30.82-77.09,99.08-20.27-87.15Z"/>
  <path class="st21" d="M716.89,1276.68l-25.7-10.6c-.77-.32-1.61-.43-2.44-.31-.83.11-1.61.44-2.26.96-.66.51-1.17,1.19-1.48,1.96-.31.77-.41,1.62-.28,2.44l1.04,7.27c.2,1.38.67,2.7,1.39,3.89.71,1.19,1.66,2.23,2.78,3.05l31.12,22.69-5.55-34.08"/>
  <path class="st7" d="M716.89,1276.68l-25.7-10.6c-.77-.32-1.61-.43-2.44-.31-.83.11-1.61.44-2.26.96-.66.51-1.17,1.19-1.48,1.96-.31.77-.41,1.62-.28,2.44l1.04,7.27c.2,1.38.67,2.7,1.39,3.89.71,1.19,1.66,2.23,2.78,3.05l31.12,22.69-5.55-34.08"/>
  <path class="st21" d="M728.53,1308.62l-6.07-14.97c-.28-.75-.29-1.58-.02-2.34,2.01-6.22,3.7-12.53,5.05-18.92.14-.78,0-1.59-.39-2.28-.4-.69-1.02-1.22-1.77-1.49-6.54-2.47-24.12-9.03-25.97-8.92-.95.04-1.86.41-2.56,1.05-.7.64-1.15,1.52-1.27,2.46-1.06,8.12,14.42,12.85,14.42,12.85l-12.73,20.07c-.41.44-.96.73-1.56.82s-1.21-.03-1.73-.34c-.52-.31-.92-.78-1.14-1.34-.22-.56-.23-1.18-.05-1.76l4.36-14c.68-2.2.51-4.58-.5-6.65-1-2.07-2.76-3.69-4.9-4.52-.5-.19-1.05-.2-1.56-.03-.51.17-.94.51-1.22.97l-33.95,56.76,26.91,36.89,45.96-50.73c.45-.47.75-1.05.87-1.69.12-.63.06-1.29-.18-1.89Z"/>
  <path class="st15" d="M680.1,1238.22c-.17.07-.31.21-.38.39-.07.17-.07.37,0,.54l.98,2.24,1.36-.54-.98-2.24c-.03-.09-.09-.18-.16-.25-.07-.07-.16-.13-.25-.17-.09-.04-.19-.05-.29-.05-.1,0-.2.03-.29.08h0Z"/>
  <path d="M680.1,1238.22c-.17.07-.31.21-.38.39-.07.17-.07.37,0,.54l.98,2.24,1.36-.54-.98-2.24c-.03-.09-.09-.18-.16-.25-.07-.07-.16-.13-.25-.17-.09-.04-.19-.05-.29-.05-.1,0-.2.03-.29.08h0Z"/>
  <path class="st15" d="M695.9,1259.87l-2.79,1.21,39.75,91.09,2.17-.94c.17-.07.3-.21.37-.38.07-.17.06-.36-.01-.53l-39.48-90.45Z"/>
  <path class="st15" d="M691.83,1261.62l-6.73,2.89,39.46,90.45c.07.17.21.3.38.36.17.07.36.06.53-.01l6.02-2.61-39.66-91.09Z"/>
  <path d="M695.9,1259.87l-2.79,1.21,39.75,91.09,2.17-.94c.17-.07.3-.21.37-.38.07-.17.06-.36-.01-.53l-39.48-90.45Z"/>
  <path d="M691.83,1261.62l-6.73,2.89,39.46,90.45c.07.17.21.3.38.36.17.07.36.06.53-.01l6.02-2.61-39.66-91.09Z"/>
  <path class="st15" d="M736.22,1360.28l-5.05,2.15c-.13.06-.28.09-.43.1-.15,0-.29-.02-.43-.08-.14-.06-.26-.14-.36-.24-.1-.1-.19-.23-.24-.36l-3.03-6.98,7.01-3.03,3.03,6.98c.12.26.14.56.05.83-.09.27-.29.5-.55.63h0Z"/>
  <path class="st15" d="M695.9,1259.87l-10.72,4.64-3.11-7.12c-1.28-2.96-3.94-15.68-.98-16.96s10.41,9.35,11.69,12.31l3.11,7.12Z"/>
  <path class="st15" d="M717.06,1337.47l5.57,12.85-6.54-2.67-1.08-2.49-4.49-10.36-13.73-31.71-2.36-5.45,1.01-.44c.63-.31,1.35-.38,2.03-.2.68.18,1.28.59,1.68,1.16s.59,1.27.53,1.97c-.06.7-.37,1.35-.87,1.85l14.74,34,3.52,1.5Z"/>
  <path class="st21" d="M655.01,1326.06l33.95-56.76c.28-.46.71-.81,1.22-.98.51-.17,1.06-.16,1.56.04,2.17.81,3.94,2.42,4.96,4.5,1.02,2.08,1.21,4.46.52,6.67l-4.36,14-37.85,32.53Z"/>
  <path class="st21" d="M549.18,1018.35l7.4,49.71c.19,1.22.69,2.36,1.45,3.33.77.96,1.77,1.71,2.92,2.16l5.75,2.25c1.85.73,3.43,2.03,4.49,3.72,1.06,1.68,1.56,3.67,1.42,5.65v.19c-.15,2.09-.97,4.08-2.35,5.66-1.38,1.58-3.23,2.66-5.29,3.09-3.36.67-6.48,1.36-6.48,1.36l-6.12,27.13c-1.51,6.67-5.51,12.52-11.19,16.33-5.68,3.81-12.61,5.3-19.35,4.16l-13.94-2.34-46.39,53.31-44.66-77.68,25.01-37.29,24.29-75.41,83.05,14.69Z"/>
  <path class="st12" d="M431.62,1000.3c8.41-15.85,19.01-21.21,35.24-19.9,1.31-.02,2.59-.4,3.7-1.09,1.11-.69,2.02-1.67,2.62-2.83,3.36-5.43,11.61-14.7,29.1-13.57,5,.16,9.87,1.59,14.16,4.15,4.29,2.56,7.86,6.18,10.38,10.5,1.07,1.68,2.71,2.93,4.63,3.52,1.91.59,3.97.47,5.8-.32,3.8-1.67,7.97-2.32,12.09-1.89,4.13.42,8.07,1.91,11.46,4.32,18.07,11.88,9.92,43.23-9.6,45.72l-15.61,1.3c-1.42.11-2.76.71-3.78,1.7-1.02.99-1.66,2.31-1.81,3.73-.3,2.76-1.12,5.45-2.42,7.91-2.14,4.03-5.45,7.31-9.5,9.41s-8.64,2.93-13.16,2.36c-.5-.05-1.01.02-1.5.18-.48.16-.92.43-1.3.77-.37.34-.67.76-.87,1.23-.2.46-.31.97-.3,1.48v17.51c.01.9-.24,1.79-.71,2.56-.48.77-1.16,1.39-1.98,1.78-.58.26-1.21.39-1.85.39-.64,0-1.27-.14-1.85-.41-.58-.26-1.1-.65-1.52-1.13-.42-.48-.74-1.04-.92-1.65l-3.63-11.61c-.62-1.96-1.79-3.7-3.37-5.01-1.59-1.31-3.52-2.13-5.56-2.37l-4.58-.54c-4.56,6.58-8.78,13.94-12.68,19.65-2.52,3.93-5.66,7.42-9.3,10.35-6.61,4.93-11.93,3.18-15.14-3.62,0,0-19.88-44-9.69-76.37.9-2.86,2.06-5.63,3.47-8.28"/>
  <g class="st13">
    <path class="st7" d="M453,1088.58l12.9,1.6c.42.25.89.49,1.36.74,4.46,2.32,11.88,5.38,18.02,3.8.43-.11.8-.4,1.03-.78.23-.39.29-.85.17-1.28-.11-.43-.4-.8-.78-1.03-.39-.23-.85-.29-1.28-.17-1.02.25-2.07.36-3.11.32l-19.01-13.46c-2.53,3.92-5.67,7.41-9.3,10.35"/>
  </g>
  <path class="st11" d="M562.31,1057.43l-77.08,5.39.27,3.89,77.08-5.39-.27-3.89Z"/>
  <path class="st21" d="M482.17,1056.89s-5.45-11.77-17.58-5.05c-13.88,7.69-7.99,40.37,16.7,39.95,12.95-.2,9.64-7.33,6.56-17.06l-5.69-17.85Z"/>
  <g class="st14">
    <path class="st8" d="M464.66,1060.44c.92-.87,2-1.53,3.19-1.95,1.19-.42,2.45-.59,3.71-.5,1.22.21,2.39.68,3.42,1.37,1.03.69,1.91,1.59,2.58,2.64,1.83,2.58,2.95,5.6,3.25,8.75l.49,2.86c.04.21.05.42,0,.63s-.13.4-.25.57c-.12.17-.28.32-.46.42-.18.11-.39.17-.6.2-.21.02-.42,0-.63-.06-.2-.06-.39-.17-.55-.31-.16-.14-.29-.31-.38-.5-.09-.19-.13-.4-.14-.61l-.49-2.86c-.34-2.6-1.25-5.09-2.67-7.28-.44-.71-1.02-1.32-1.7-1.81-.68-.48-1.44-.83-2.26-1.02-.85-.04-1.71.11-2.5.42s-1.52.78-2.12,1.38c-.15.12-.33.22-.52.28s-.39.08-.58.06c-.2-.02-.39-.08-.56-.17-.17-.09-.33-.22-.45-.37s-.22-.33-.28-.52c-.06-.19-.08-.39-.06-.58.02-.2.08-.39.17-.56.09-.17.22-.33.37-.45"/>
  </g>
  <path class="st11" d="M560.45,1078.42c-.37-.12-.69-.34-.93-.64-.24-.3-.39-.66-.42-1.04l-4.71-35.32c-.07-.51.07-1.03.39-1.44.31-.41.78-.68,1.29-.75.25-.04.51-.02.76.05.25.07.48.18.68.34.2.16.37.35.5.58.13.22.21.47.23.72l4.71,35.32c.07.51-.07,1.03-.39,1.44-.31.41-.78.68-1.29.75-.27.05-.55.05-.82,0"/>
  <path class="st8" d="M545.26,1105.55c3.2,1.71,6.77,2.64,10.4,2.73l.69-3.84c-4.61-.12-9.05-1.76-12.63-4.66-.38-.34-.89-.52-1.4-.49-.51.03-.99.26-1.33.65-.34.38-.52.89-.49,1.4s.26.99.65,1.33c1.24,1.13,2.63,2.1,4.12,2.88"/>
  <path class="st11" d="M506.27,1220.17l-14.63-16.37,1.08-21.62-67.91-79.58-17.98,17.24c-18.1-.28-35.85,4.95-50.91,14.99-15.06,10.04-26.71,24.42-33.42,41.23,0,0-91.74,245.17-90.36,271.16,36.08,22.92,78.12,34.71,120.86,33.9,0,0,17.54-.96,25.47-1.95,3.92-.49,20.51-3.73,21.51-3.97,13.02-3.09,25.73-7.37,37.97-12.8l4.36-104.09,84.31-75.16-.2-11.61c-.34-18.98-7.48-37.21-20.14-51.37h0Z"/>
  <path class="st4" d="M440.58,1396.53c-68.36-31.02-135.72-172.69-135.72-172.69l-19.92,57.19s54.47,120.37,153.56,166.53l2.07-51.04Z"/>
  <g class="st13">
    <path class="st7" d="M488.88,1203.7l-59.72-63.62c-.17-.19-.31-.4-.4-.64-.09-.24-.13-.49-.13-.75,0-.25.07-.5.17-.74.1-.23.25-.44.44-.62.19-.17.4-.31.64-.4.24-.09.49-.13.75-.12.26,0,.51.07.74.17s.44.25.62.44l59.72,63.62-.08,2.74c-.27.25-.6.42-.95.51-.35.09-.73.09-1.08,0l-.71-.61Z"/>
  </g>
  <g class="st14">
    <path class="st8" d="M507.84,1140.74l-10.26-2.1c-.58-.13-1.2-.07-1.74.16-.55.24-1.01.65-1.31,1.16-.3.52-.44,1.12-.38,1.71.06.6.31,1.16.71,1.6l5.33,6.29,7.65-8.83Z"/>
  </g>
  <path class="st11" d="M432.41,1338.13l23.42,127.49c2.37,7.15,6.42,13.63,11.82,18.88,5.4,5.25,11.99,9.13,19.2,11.3s14.84,2.57,22.25,1.16c7.4-1.4,14.36-4.57,20.27-9.23l152.57-124.78-26.91-37.01-116.27,61.65-13.04-116.84-93.31,67.39Z"/>
  <path class="st7" d="M538.75,1387.55l1.92,14.85c.12.89.5,1.73,1.09,2.4.59.67,1.38,1.16,2.25,1.38.87.23,1.79.19,2.63-.11.85-.3,1.59-.84,2.12-1.56l27.77-37.68-37.78,20.72Z"/>
  <path class="st7" d="M437.91,1462.42l5.05-123.84c0-.67-.27-1.31-.74-1.78-.47-.47-1.12-.74-1.78-.74s-1.31.27-1.78.74c-.47.47-.74,1.12-.74,1.78l-24.32,132.89s9.82-3.26,13.07-4.47c2.84-1.03,11.25-4.58,11.25-4.58Z"/>
  <path class="st2" d="M1089.59,583.49c3.54-.49,6.19-2.5,5.91-4.48-.27-1.98-3.37-3.18-6.91-2.69-3.54.49-6.19,2.5-5.92,4.48.28,1.98,3.37,3.18,6.91,2.69Z"/>
  <path class="st12" d="M1156.96,489.22c20.1,0,36.4-16.3,36.4-36.4s-16.3-36.4-36.4-36.4-36.4,16.3-36.4,36.4,16.3,36.4,36.4,36.4Z"/>
  <path class="st11" d="M1143.82,442.13c-7.62-1.41-15.48-.33-22.44,3.06,0,.35-.19.71-.25,1.06-.73,4-.77,8.09-.13,12.11,9.52-1.46,19.23.92,27,6.62,7.77,5.7,12.96,14.24,14.43,23.76,3.63-.56,7.15-1.66,10.45-3.26,0-.35.17-.69.24-1.03,1.73-9.5-.39-19.29-5.88-27.23-5.49-7.94-13.91-13.37-23.41-15.1h0Z"/>
  <path class="st12" d="M1111.71,612.7c11.32,0,20.49-9.17,20.49-20.49s-9.17-20.49-20.49-20.49-20.49,9.17-20.49,20.49,9.17,20.49,20.49,20.49Z"/>
  <path class="st23" d="M1140.73,528.16l20.19,67.91c.47,1.59,1.25,3.07,2.29,4.36,1.04,1.29,2.33,2.35,3.78,3.14,1.46.79,3.05,1.28,4.7,1.45,1.65.17,3.31.02,4.9-.46l8.12-2.05s-17.34,30.92-62.54,41.8c-23.55,5.65-48.08-3.9-48.08-3.9l13.19-6.73s.96-1.14,1.5-11.2c.22-4.76.04-9.52-.52-14.25-2.79-19.19-11.29-76.17-11.29-76.17l63.75-3.9Z"/>
  <path class="st23" d="M1107.05,596.59l3.36-.66c5.59-1.23,10.89-3.55,15.58-6.82,4.69-3.28,8.7-7.45,11.78-12.27,3.08-4.82,5.19-10.21,6.19-15.85,1-5.64.88-11.42-.35-17.01l-13.24-59.75c-.41-1.87-1.18-3.64-2.28-5.21-1.1-1.57-2.49-2.91-4.11-3.93-1.62-1.03-3.42-1.72-5.31-2.05-1.89-.32-3.82-.27-5.69.16l-55.95,12.23c-4.89,1.09-9.15,4.07-11.84,8.3-2.69,4.23-3.6,9.35-2.52,14.24l12.33,55.51c2.58,11.25,9.49,21.03,19.23,27.23,9.74,6.2,21.53,8.31,32.81,5.88h0Z"/>
  <path class="st12" d="M1092.26,545.32c2.61,0,4.73-2.12,4.73-4.73s-2.12-4.73-4.73-4.73-4.73,2.12-4.73,4.73,2.12,4.73,4.73,4.73Z"/>
  <path class="st2" d="M1090.14,541.2c.54,0,.98-.44.98-.98s-.44-.98-.98-.98-.98.44-.98.98.44.98.98.98Z"/>
  <path class="st12" d="M1056.74,554.77c2.61,0,4.73-2.12,4.73-4.73s-2.12-4.73-4.73-4.73-4.73,2.12-4.73,4.73,2.12,4.73,4.73,4.73Z"/>
  <path class="st2" d="M1054.55,550.45c.54,0,.98-.44.98-.98s-.44-.98-.98-.98-.98.44-.98.98.44.98.98.98Z"/>
  <g class="st13">
    <path class="st7" d="M1082.51,562.46l6.22-1.04c.37-.04.7-.23.93-.52.23-.29.34-.66.29-1.03-.04-.37-.23-.7-.52-.93-.29-.23-.66-.34-1.03-.29l-6.22,1.04c-.38.07-.77.06-1.14-.02-.38-.08-.73-.24-1.04-.46-.31-.22-.58-.51-.78-.83-.2-.33-.34-.69-.4-1.07-.09-.76.09-1.53.52-2.16.43-.64,1.06-1.1,1.8-1.3.18-.02.36-.08.52-.17.16-.09.3-.21.42-.35.11-.14.2-.31.25-.48.05-.18.07-.36.05-.54-.02-.18-.08-.36-.17-.52-.09-.16-.21-.3-.35-.42-.14-.11-.31-.2-.48-.25-.18-.05-.36-.07-.54-.05-1.46.28-2.75,1.12-3.6,2.33-.86,1.21-1.21,2.71-.99,4.18,0,.77.17,1.53.51,2.21.34.69.83,1.29,1.43,1.77.6.47,1.31.8,2.06.96.75.16,1.53.14,2.27-.04Z"/>
  </g>
  <path class="st7" d="M1086.43,596.15c7.62,1.93,15.59,1.97,23.23.13l5.05-1.36c.65-.14,1.27-.37,1.85-.69l.37-.1c.89-.45,1.85-.69,2.94-1.19.37-.1.71-.4,1.09-.5,5.01-2.25,9.57-5.39,13.46-9.27.23-.21.54-.32.85-.32s.61.11.85.32c.23.21.38.49.42.8.04.31-.04.62-.22.88-5.02,5.02-11.05,8.92-17.7,11.44-5.12,6.52-12.19,11.24-20.19,13.46-3.2.85-6.49,1.32-9.81,1.4l-2.2-14.99Z"/>
  <path class="st12" d="M1132.68,482.39c-1.43-13-4.76-3.53-12.25-10.29-7.49-6.76-42.05-.77-42.05-.77-6.04,3.99-21.23,11-16.22,21.99,20.08,43.94,75.7,25.23,75.7,25.23l-5.18-36.15Z"/>
  <path class="st12" d="M1169.27,479.61c-1.68-18.72-18.2-28.6-30.85-30.99-7.91-1.45-14.26-1.5-24.46-.81-95.38,6.41-76.32,72.7-76.32,72.7l36.18-34.01,63.33,28.7s19.78,5.92,15.14,21.35c-4.02,13.27-17.39,15.41-17.39,15.41,4.7,7.23,10.89,13.38,18.17,18.02,0,0,22.59-26.48,16.2-90.36Z"/>
  <path class="st12" d="M1037.64,520.52c-13.32-43.74,27.65-43.55,27.65-43.55,4.21,0,.69-.71,2.3,6.14,4.74,20.19-3.53,30.68-17.33,34.23-3.4.89-12.63,3.18-12.63,3.18Z"/>
  <path class="st23" d="M1131.86,552.53s20.82-2.07,21.55-23.03c.72-20.96-25.23-20.39-25.05.74l1.21,22.89,2.29-.61Z"/>
  <path class="st7" d="M1145.13,519.88c-.98-.53-2.06-.85-3.17-.94s-2.22.05-3.28.4c-1.01.44-1.91,1.1-2.63,1.93-.73.82-1.27,1.8-1.59,2.85-1.05,2.67-1.35,5.58-.84,8.41l.37,2.14c.2,1.58,3.08,1.68,2.76-.32l-.22-2.37c-.36-2.3-.15-4.66.61-6.86.44-1.44,1.43-2.65,2.76-3.36,1.46-.43,3.04-.28,4.39.44.34.13.71.12,1.05,0,.34-.13.62-.37.8-.69.04-.34-.04-.69-.22-.98-.18-.29-.46-.51-.79-.63h0Z"/>
  <path class="st11" d="M1136.12,548.33c2.29,0,4.15-1.86,4.15-4.15s-1.86-4.15-4.15-4.15-4.15,1.86-4.15,4.15,1.86,4.15,4.15,4.15Z"/>
  <path class="st7" d="M1135.38,548.13c.59-.09,1.16-.3,1.67-.62.51-.31.95-.73,1.29-1.22.34-.49.59-1.04.71-1.63.12-.59.13-1.19.01-1.78-.2-.81-.61-1.55-1.19-2.14.6.3,1.12.72,1.54,1.24.42.52.72,1.12.88,1.77.1.54.1,1.09-.02,1.62-.11.53-.33,1.04-.65,1.49-.31.45-.71.83-1.18,1.12-.46.29-.98.48-1.52.57-.85.22-1.76.09-2.52-.35.35-.08.72-.2.98-.07Z"/>
  <path class="st12" d="M1128.5,530.8c.62-.96.22-8.98,3.97-12.75l-3.36-2.93s-3.36,9.15-3.21,15.02c.04.29.16.56.35.77.19.22.45.37.73.44.28.07.58.06.85-.04.27-.1.51-.28.68-.51h0Z"/>
  <path class="st2" d="M1088.36,569.96l1.68,1.51c1.1.88,2.39,1.47,3.77,1.73,1.38.26,2.8.17,4.14-.25,1.34-.42,2.56-1.16,3.54-2.16.99-1,1.71-2.23,2.11-3.57l.72-2.61c.15-.56-.25-1.08-.79-.86l-14.99,5.05c-.12.03-.22.1-.31.19-.08.09-.14.2-.16.32-.02.12,0,.25.04.36.05.11.12.21.22.28h0Z"/>
  <path class="st21" d="M814.47,931.33l27.79,5.5c.83.16,1.69.11,2.49-.17.8-.28,1.52-.76,2.07-1.4.55-.64.93-1.42,1.09-2.25.15-.83.09-1.69-.2-2.49l-2.47-7.12c-.47-1.33-1.21-2.56-2.16-3.61-.95-1.05-2.1-1.9-3.38-2.51l-35.59-16.52,12.31,32.95"/>
  <path class="st7" d="M814.47,931.33l27.79,5.5c.83.16,1.69.11,2.49-.17.8-.28,1.52-.76,2.07-1.4.55-.64.93-1.42,1.09-2.25.15-.83.09-1.69-.2-2.49l-2.47-7.12c-.47-1.33-1.21-2.56-2.16-3.61-.95-1.05-2.1-1.9-3.38-2.51l-35.59-16.52,12.31,32.95"/>
  <path class="st21" d="M796.46,901.64l9.03,13.76c.44.67.63,1.47.56,2.27-.76,6.61-1.17,13.25-1.23,19.9.02.81.32,1.59.85,2.2.53.61,1.26,1.02,2.06,1.16,7.03,1.18,25.9,4.24,27.72,3.77.92-.24,1.73-.79,2.28-1.56.55-.77.82-1.71.75-2.66-.56-8.33-16.96-9.99-16.96-9.99l8.7-22.56c.31-.55.8-.97,1.39-1.2.59-.23,1.23-.24,1.83-.04.6.2,1.11.6,1.44,1.13.33.53.47,1.17.39,1.79l-1.58,14.85c-.24,2.33.4,4.67,1.81,6.54,1.41,1.87,3.48,3.14,5.79,3.55.54.09,1.09,0,1.57-.28.47-.27.84-.7,1.02-1.22l19.63-59.56-33.64-21.87-33.41,46.29c-.35.56-.54,1.2-.54,1.86s.19,1.3.54,1.86h0Z"/>
  <path class="st15" d="M858.85,962.4c.08-.05.15-.12.2-.2.05-.08.09-.17.11-.26.02-.09.02-.19,0-.28-.02-.09-.06-.18-.11-.26l-1.41-2.04-1.19.82,1.41,2.04c.11.15.28.26.47.3.19.04.38,0,.54-.11Z"/>
  <path d="M858.85,962.4c.08-.05.15-.12.2-.2.05-.08.09-.17.11-.26.02-.09.02-.19,0-.28-.02-.09-.06-.18-.11-.26l-1.41-2.04-1.19.82,1.41,2.04c.11.15.28.26.47.3.19.04.38,0,.54-.11Z"/>
  <path class="st15" d="M838.78,943.9l2.56-1.77-57.76-83.13-1.97,1.36c-.15.11-.26.27-.29.45-.04.18,0,.37.11.53l57.36,82.56Z"/>
  <path class="st15" d="M842.5,941.32l6.09-4.21-57.36-82.56c-.11-.15-.27-.26-.45-.29-.18-.03-.37,0-.53.11l-5.57,3.8,57.82,83.15Z"/>
  <path d="M838.78,943.9l2.56-1.77-57.76-83.13-1.97,1.36c-.15.11-.26.27-.29.45-.04.18,0,.37.11.53l57.36,82.56Z"/>
  <path d="M842.5,941.32l6.09-4.21-57.36-82.56c-.11-.15-.27-.26-.45-.29-.18-.03-.37,0-.53.11l-5.57,3.8,57.82,83.15Z"/>
  <path class="st15" d="M778.59,851.62l4.52-3.13c.12-.09.26-.15.41-.18.14-.03.3-.04.44,0,.15.03.29.08.41.16.13.08.23.19.32.31l4.41,6.38-6.39,4.42-4.41-6.38c-.17-.25-.24-.55-.18-.85.05-.3.22-.56.47-.73h0Z"/>
  <path class="st15" d="M838.78,943.9l9.79-6.73,4.49,6.51c1.87,2.71,7.05,14.89,4.34,16.82-2.71,1.87-12.26-7.28-14.13-9.98l-4.49-6.63Z"/>
  <path class="st15" d="M802.26,870.56l-8.11-11.77,7.07,1.38,1.56,2.27,6.54,9.47,19.98,28.93,3.45,5.05-.93.64c-.66.45-1.48.63-2.26.48-.79-.14-1.49-.6-1.94-1.26-.33-.5-.5-1.08-.5-1.68s.17-1.18.5-1.68l-21.45-31.05-3.92-.77Z"/>
  <path class="st21" d="M863.49,873.54l-19.63,59.56c-.19.51-.55.94-1.02,1.22-.47.27-1.03.37-1.57.28-2.31-.41-4.38-1.67-5.79-3.55-1.41-1.87-2.06-4.21-1.81-6.55l1.58-14.85,28.24-36.12Z"/>
  <path class="st11" d="M1072.48,720.34l-118.59,50.97-90.38,102.24-33.64-21.87,89.3-124.48c5.68-7.95,13.17-14.42,21.87-18.87l132.97-68.01-1.53,80.02Z"/>
  <path class="st7" d="M1033.91,686.38s6.85,25.52,6.81,47.6l-13.63,5.85c2.27-6.14,4.05-12.45,5.3-18.87,2-11.41,2.51-23.04,1.51-34.58h0Z"/>
  <path class="st25" d="M869.3,815.54c.48.09.98.03,1.44-.16s.84-.52,1.1-.94.41-.9.4-1.39-.16-.97-.44-1.38c-.28-.41-.67-.72-1.13-.9-.46-.18-.96-.22-1.44-.12-.48.1-.92.35-1.26.7-.34.35-.57.8-.66,1.29-.07.32-.07.65,0,.98.07.32.2.63.38.9.19.27.43.5.7.67.28.18.59.29.91.34h0Z"/>
  <path class="st25" d="M914.97,764.94c.48.09.99.03,1.44-.16.45-.2.84-.52,1.1-.94s.41-.9.4-1.39c0-.49-.16-.97-.44-1.38-.28-.4-.67-.72-1.13-.9-.46-.18-.96-.22-1.44-.12-.48.1-.92.35-1.26.7-.34.35-.57.8-.66,1.29-.06.32-.06.65,0,.98.07.32.2.63.38.9.19.27.43.5.7.67.28.18.59.29.91.34h0Z"/>
  <path class="st25" d="M960.92,717.85c.48.09.98.03,1.44-.16.45-.2.84-.52,1.1-.94.27-.41.41-.9.4-1.39,0-.49-.16-.97-.44-1.38-.28-.41-.67-.72-1.13-.9-.46-.18-.96-.22-1.44-.12-.48.1-.92.35-1.26.7-.34.35-.57.8-.66,1.29-.07.32-.07.65,0,.98.07.32.2.63.38.9.19.27.43.5.7.67.28.17.59.29.91.34h0Z"/>
  <path class="st25" d="M1067.42,676.71c.48.09.99.03,1.44-.16.45-.2.84-.52,1.1-.94.27-.41.41-.9.4-1.39,0-.49-.16-.97-.44-1.38-.28-.4-.67-.72-1.13-.9-.46-.18-.96-.22-1.44-.12-.48.1-.92.35-1.26.7-.34.35-.57.8-.66,1.29-.07.32-.06.65,0,.98.07.32.2.63.38.9.19.27.43.5.7.67.28.17.59.29.91.34h0Z"/>
  <path class="st25" d="M907.24,807.36c.48.09.98.03,1.44-.16.45-.2.84-.52,1.1-.94.27-.41.41-.9.4-1.39,0-.49-.16-.97-.44-1.38s-.67-.72-1.13-.9c-.46-.18-.96-.22-1.44-.12s-.92.35-1.26.7c-.34.35-.57.8-.66,1.29-.07.32-.07.65,0,.98.07.32.2.63.38.9.19.27.43.5.7.67.28.17.59.29.91.34h0Z"/>
  <path class="st25" d="M1007.92,733.21c.48.09.98.03,1.44-.16.45-.2.84-.52,1.1-.94.27-.41.41-.9.4-1.39,0-.49-.16-.97-.44-1.38-.28-.41-.67-.72-1.13-.9-.46-.18-.96-.22-1.44-.12-.48.1-.92.35-1.26.7-.34.35-.57.8-.66,1.29-.07.32-.06.65,0,.98.07.32.2.63.38.9.19.27.43.5.7.67.28.17.59.29.91.34h0Z"/>
  <path class="st25" d="M1050.46,710.5c.48.09.98.03,1.44-.16.45-.2.84-.52,1.1-.94s.41-.9.4-1.39c0-.49-.16-.97-.44-1.38-.28-.41-.67-.72-1.13-.9-.46-.18-.96-.22-1.44-.12-.48.1-.92.35-1.26.7-.34.35-.57.8-.66,1.29-.07.32-.06.65,0,.98.07.32.2.63.38.9.19.27.43.5.7.67.28.17.59.29.91.34Z"/>
  <path class="st25" d="M1001.68,701.6c.48.09.98.03,1.44-.16.45-.2.84-.52,1.1-.93s.41-.9.4-1.39c0-.49-.16-.97-.44-1.38-.28-.41-.67-.72-1.13-.9-.46-.18-.96-.22-1.44-.12-.48.1-.92.35-1.26.7-.34.35-.57.8-.66,1.29-.07.32-.06.65,0,.98.07.32.2.63.38.9.19.27.43.5.7.67.28.17.59.29.91.34h0Z"/>
  <path class="st25" d="M871.85,850.05c.48.09.98.03,1.44-.16.45-.2.83-.52,1.1-.93s.41-.9.4-1.39c0-.49-.16-.97-.44-1.38s-.67-.72-1.13-.9c-.46-.18-.96-.22-1.44-.12-.48.1-.92.35-1.26.7-.34.35-.57.8-.66,1.29-.07.32-.07.65,0,.98.07.32.2.63.38.9.19.27.43.5.7.67.28.17.59.29.91.34h0Z"/>
  <path class="st25" d="M948.94,755.89c.48.09.98.03,1.44-.16.45-.2.84-.52,1.1-.94.27-.41.41-.9.4-1.39,0-.49-.16-.97-.44-1.38-.28-.41-.67-.72-1.13-.9-.46-.18-.96-.22-1.44-.12-.48.1-.92.35-1.26.7-.34.35-.57.8-.66,1.29-.07.32-.07.65,0,.98.07.32.2.63.38.9.19.27.43.5.7.67.28.18.59.29.91.35h0Z"/>
  <path class="st2" d="M1038.77,549.49c.54,2.88,1.74,5.6,3.5,7.94,1.76,2.34,4.04,4.25,6.66,5.56,2.62,1.32,5.51,2.01,8.44,2.02,2.93.02,5.83-.65,8.46-1.94,2.63-1.29,4.93-3.17,6.72-5.49,1.79-2.32,3.01-5.03,3.58-7.91.57-2.88.47-5.85-.3-8.67-.77-2.83-2.18-5.44-4.13-7.64,2.78-1.62,5.97-2.4,9.18-2.24-.3,2.09-.3,4.21,0,6.29.68,3.7,2.45,7.11,5.07,9.81,2.62,2.69,5.99,4.55,9.67,5.34,3.68.78,7.51.46,11-.93s6.5-3.79,8.63-6.89c2.13-3.1,3.3-6.76,3.35-10.52.05-3.76-1.01-7.46-3.06-10.61-2.05-3.16-4.98-5.64-8.44-7.12-3.46-1.49-7.28-1.92-10.98-1.24-3.46.62-6.67,2.19-9.29,4.54-2.61,2.35-4.52,5.38-5.5,8.75-4.03-.41-8.07.6-11.44,2.84-3.01-2.57-6.74-4.14-10.68-4.5-3.94-.36-7.89.52-11.31,2.51s-6.14,4.99-7.78,8.59c-1.64,3.6-2.12,7.62-1.38,11.5h0ZM1083.08,537.06c-.59-3.2-.22-6.51,1.07-9.5,1.29-2.99,3.43-5.54,6.17-7.31,2.73-1.77,5.93-2.69,9.19-2.65,3.26.05,6.43,1.06,9.11,2.9,2.68,1.85,4.76,4.45,5.96,7.48,1.2,3.03,1.48,6.34.8,9.53-.68,3.18-2.29,6.1-4.63,8.37-2.34,2.27-5.29,3.8-8.5,4.39-4.28.74-8.69-.22-12.27-2.69-3.58-2.46-6.06-6.23-6.9-10.5v-.02ZM1041.28,548.98c-.59-3.2-.22-6.51,1.07-9.5,1.29-2.99,3.43-5.54,6.17-7.31,2.73-1.77,5.93-2.69,9.19-2.65,3.26.05,6.43,1.06,9.11,2.9,2.68,1.85,4.76,4.45,5.96,7.48,1.2,3.03,1.48,6.34.8,9.53-.68,3.18-2.29,6.1-4.63,8.37-2.34,2.27-5.29,3.8-8.5,4.39-4.29.79-8.72-.15-12.32-2.63-3.59-2.47-6.06-6.27-6.86-10.56v-.02Z"/>
  <path class="st7" d="M510.49,1225.41s15.14,24.44,15.81,49.34l15.26-19.31-29.79-30.83-1.28.81Z"/>
  <path class="st22" d="M1448.46,1246.32l-381.85,246.1c-2.93,1.89-5.27,4.57-6.74,7.73-1.47,3.16-2.02,6.67-1.59,10.13.44,3.46,1.84,6.73,4.05,9.42,2.21,2.7,5.14,4.71,8.45,5.82l381.85,127.25c2.78.93,5.75,1.18,8.65.74s5.65-1.57,8.02-3.28c2.39-1.71,4.32-3.97,5.65-6.58,1.35-2.61,2.04-5.5,2.04-8.43v-373.33c0-3.33-.89-6.59-2.59-9.45s-4.14-5.21-7.05-6.8c-2.93-1.59-6.22-2.37-9.54-2.25-3.33.12-6.56,1.14-9.35,2.94h0Z"/>
  <path class="st17" d="M1203.33,1006.79h-6.86c-.22,0-.44-.09-.59-.25-.16-.16-.25-.37-.25-.6s.09-.44.25-.6.37-.25.59-.25h6.73c.23,0,.45.08.62.24.17.16.27.37.27.6,0,.11,0,.21-.04.31-.03.1-.09.19-.16.27-.07.08-.15.14-.25.19-.1.04-.2.07-.3.07h0ZM1189.73,1006.79h-6.73c-.22,0-.44-.09-.59-.25s-.25-.37-.25-.6.09-.44.25-.6c.16-.16.37-.25.59-.25h6.73c.22,0,.44.09.6.25.16.16.25.37.25.6s-.09.44-.25.6c-.16.16-.37.25-.6.25ZM1176.27,1006.79h-6.73c-.22,0-.44-.09-.59-.25s-.25-.37-.25-.6.09-.44.25-.6c.16-.16.37-.25.59-.25h6.73c.22,0,.44.09.6.25.16.16.25.37.25.6s-.09.44-.25.6c-.16.16-.37.25-.6.25ZM1162.81,1006.79h-6.73c-.22,0-.44-.09-.59-.25s-.25-.37-.25-.6.09-.44.25-.6c.16-.16.37-.25.59-.25h6.73c.22,0,.44.09.6.25.16.16.25.37.25.6s-.09.44-.25.6c-.16.16-.37.25-.6.25ZM1149.35,1006.79h-6.73c-.22,0-.44-.09-.59-.25s-.25-.37-.25-.6.09-.44.25-.6c.16-.16.37-.25.59-.25h6.73c.22,0,.44.09.6.25.16.16.25.37.25.6s-.09.44-.25.6c-.16.16-.37.25-.6.25ZM1135.9,1006.79h-.24c-2.34,0-4.63-.63-6.64-1.82-.1-.06-.18-.13-.25-.22-.07-.09-.12-.19-.15-.3-.03-.11-.04-.22-.02-.33.02-.11.05-.22.11-.31.06-.1.13-.18.22-.25.09-.07.19-.11.3-.14.11-.03.22-.03.33-.01.11.02.22.06.31.11,1.75,1.04,3.75,1.58,5.79,1.58h.24c.22,0,.44.09.6.25.16.16.25.37.25.6s-.09.44-.25.6c-.16.16-.37.25-.6.25ZM1209.91,1004.91c-.18,0-.36-.06-.5-.17s-.25-.26-.3-.44c-.05-.17-.05-.36.02-.53.06-.17.18-.31.33-.41,1.78-1.13,3.22-2.73,4.14-4.63.1-.2.27-.35.48-.43.21-.07.44-.06.64.04.2.1.35.27.43.48.07.21.06.44-.04.64-1.06,2.17-2.71,4.01-4.76,5.3-.08.07-.18.11-.29.14-.1.02-.21.02-.32,0h.17ZM1124.64,1000.3c-.15,0-.3-.04-.43-.12-.13-.08-.24-.19-.31-.33-.96-1.85-1.46-3.9-1.46-5.99v-.99c.02-.22.12-.43.29-.58.17-.14.39-.22.61-.2s.43.12.58.29c.14.17.22.39.2.61v.86c0,1.82.44,3.6,1.28,5.21.05.1.08.2.1.31.01.11,0,.22-.04.32-.03.11-.09.2-.16.29-.07.08-.16.15-.26.2-.12.07-.26.1-.4.1h0ZM1215.9,993.57h-.17c-.22-.05-.41-.17-.54-.36-.13-.19-.17-.41-.13-.63l1.35-6.63c.02-.11.07-.22.13-.31.06-.09.14-.17.24-.24.09-.06.2-.11.31-.13.11-.02.22-.02.33,0s.22.07.31.13c.09.06.17.14.24.24.06.09.11.2.13.31s.02.22,0,.33l-1.35,6.61c-.06.17-.18.31-.33.41-.15.1-.33.14-.51.13v.13ZM1124.56,987.2h-.08c-.11-.02-.21-.06-.3-.12-.09-.06-.17-.14-.23-.23-.06-.09-.1-.19-.12-.3-.02-.11-.02-.22,0-.33l1.35-6.63c.02-.11.06-.21.12-.31.06-.09.14-.17.23-.23.09-.06.2-.1.31-.12.11-.02.22-.02.33,0,.11.02.21.07.3.13.09.06.17.14.23.23s.1.2.12.3c.02.11.02.22,0,.33l-1.35,6.61c-.07.18-.2.32-.36.42-.16.1-.36.13-.55.1v.13ZM1218.57,980.12h-.17c-.11-.02-.21-.06-.31-.12-.09-.06-.17-.14-.23-.23-.06-.09-.1-.2-.12-.31-.02-.11-.02-.22,0-.33l1.35-6.61c.02-.11.06-.21.12-.3.06-.09.14-.17.23-.23.09-.06.19-.1.3-.12.11-.02.22-.02.33,0,.11.02.22.06.31.12.09.06.17.14.24.23.06.09.11.2.13.31.02.11.02.22,0,.33l-1.35,6.61c-.04.19-.15.35-.3.47-.15.12-.34.19-.53.18h0ZM1127.23,973.76h-.17c-.11-.02-.21-.07-.3-.13-.09-.06-.17-.14-.23-.23-.06-.09-.1-.2-.12-.3-.02-.11-.02-.22,0-.33l1.35-6.61c.02-.11.06-.21.12-.31.06-.09.14-.17.23-.24.09-.06.2-.11.31-.13s.22-.02.33,0c.22.05.41.18.53.36s.17.41.13.63l-1.35,6.63c-.03.2-.12.39-.27.52-.15.13-.35.21-.55.21v-.07ZM1221.25,966.88h-.17c-.22-.05-.41-.18-.53-.36s-.17-.41-.13-.63l1.35-6.63c.02-.11.07-.21.13-.3.06-.09.14-.17.23-.23.09-.06.2-.1.3-.12.11-.02.22-.02.33,0,.22.05.41.18.53.36.12.19.17.41.13.63l-1.35,6.63c-.03.2-.12.39-.27.52-.15.13-.35.21-.55.21v-.07ZM1129.93,960.52h-.17c-.11-.02-.21-.07-.3-.13-.09-.06-.17-.14-.23-.23s-.1-.2-.12-.3c-.02-.11-.02-.22,0-.33l1.33-6.63c.05-.22.18-.41.36-.53.19-.12.41-.17.63-.13.11.02.21.07.3.13.09.06.17.14.23.23.06.09.1.2.12.3.02.11.02.22,0,.33l-1.33,6.63c-.03.2-.13.38-.28.51-.15.13-.34.21-.54.21v-.07ZM1223.94,953.64h-.22c-.11-.02-.21-.07-.3-.13-.09-.06-.17-.14-.23-.23s-.1-.2-.12-.3c-.02-.11-.02-.22,0-.33l1.33-6.63c.05-.22.18-.41.36-.53.19-.12.41-.17.63-.13.11.02.21.07.3.13.09.06.17.14.23.23.06.09.1.2.12.3.02.11.02.22,0,.33l-1.33,6.63c-.03.19-.12.36-.26.49-.14.13-.32.21-.51.23v-.07ZM1132.6,947.28h-.17c-.22-.05-.41-.18-.53-.36-.12-.19-.17-.41-.13-.63l1.35-6.63c.02-.11.06-.21.12-.31.06-.09.14-.17.23-.23.09-.06.2-.1.31-.12.11-.02.22-.02.33,0,.11.02.21.07.3.13.09.06.17.14.23.23.06.09.1.2.12.3.02.11.02.22,0,.33l-1.35,6.61c-.03.2-.13.39-.28.52-.15.13-.34.21-.55.22v-.07ZM1226.62,940.38h-.17c-.11-.02-.21-.06-.31-.12-.09-.06-.17-.14-.23-.23-.06-.09-.1-.2-.12-.31-.02-.11-.02-.22,0-.33l1.35-6.61c.02-.11.06-.21.12-.31.06-.09.14-.17.23-.23.09-.06.2-.1.31-.12s.22-.02.33,0c.11.02.21.07.3.13.09.06.17.14.23.23.06.09.1.2.12.3.02.11.02.22,0,.33l-1.35,6.61c-.03.2-.13.38-.28.51-.15.13-.34.21-.55.21v-.07ZM1135.29,934.03h-.17c-.11-.02-.21-.06-.31-.12-.09-.06-.17-.14-.24-.23-.06-.09-.11-.2-.13-.31-.02-.11-.02-.22,0-.33l1.35-6.61c.02-.11.07-.21.13-.3.06-.09.14-.17.23-.23.09-.06.2-.1.3-.12.11-.02.22-.02.33,0,.11.02.21.06.31.12.09.06.17.14.23.23.06.09.1.2.12.31.02.11.02.22,0,.33l-1.33,6.61c-.03.2-.13.38-.28.51-.15.13-.34.21-.55.21v-.07ZM1229.21,927.13c-.11,0-.22-.04-.32-.09-.1-.05-.19-.12-.26-.2-.07-.08-.13-.18-.16-.29-.03-.11-.05-.22-.04-.33v-.81c0-1.83-.44-3.64-1.3-5.27-.07-.19-.07-.41,0-.6.07-.19.21-.35.4-.45.18-.09.39-.12.59-.07.2.05.38.17.49.34.99,1.86,1.5,3.93,1.5,6.04.02.31.02.63,0,.94,0,.12-.02.23-.07.34-.05.11-.11.2-.2.28-.09.08-.19.14-.3.18-.11.04-.23.05-.34.04v-.07ZM1138.37,920.9c-.13,0-.25-.03-.37-.08-.2-.1-.35-.28-.42-.49-.07-.21-.06-.44.03-.64,1.06-2.18,2.72-4.02,4.78-5.3.09-.06.2-.1.31-.12.11-.02.22-.02.33.01.11.03.21.07.3.14.09.07.16.15.22.25.11.19.15.42.1.63-.05.22-.18.41-.37.53-1.79,1.11-3.24,2.71-4.15,4.61-.06.15-.17.29-.31.38-.14.1-.3.15-.47.16l.02-.07ZM1223.25,915.77c-.15,0-.29-.04-.42-.12-1.74-1.03-3.73-1.57-5.75-1.56h-.29c-.22,0-.44-.09-.6-.25-.16-.16-.25-.37-.25-.6s.09-.44.25-.6c.16-.16.37-.25.6-.25h.2c2.32,0,4.6.62,6.59,1.8.16.09.28.24.35.41s.08.36.03.53c-.05.18-.15.33-.3.45-.14.11-.32.17-.51.18h.08ZM1210.05,914.09h-6.73c-.22,0-.44-.09-.6-.25-.16-.16-.25-.37-.25-.6s.09-.44.25-.6c.16-.16.37-.25.6-.25h6.73c.22,0,.44.09.6.25.16.16.25.37.25.6s-.09.44-.25.6c-.16.16-.37.25-.6.25ZM1196.59,914.09h-6.73c-.22,0-.44-.09-.6-.25-.16-.16-.25-.37-.25-.6s.09-.44.25-.6c.16-.16.37-.25.6-.25h6.73c.22,0,.44.09.6.25.16.16.25.37.25.6s-.09.44-.25.6c-.16.16-.37.25-.6.25ZM1183.13,914.09h-6.73c-.22,0-.44-.09-.6-.25-.16-.16-.25-.37-.25-.6s.09-.44.25-.6c.16-.16.37-.25.6-.25h6.73c.22,0,.44.09.6.25.16.16.25.37.25.6s-.09.44-.25.6c-.16.16-.37.25-.6.25ZM1169.67,914.09h-6.73c-.22,0-.44-.09-.6-.25-.16-.16-.25-.37-.25-.6s.09-.44.25-.6c.16-.16.37-.25.6-.25h6.73c.22,0,.44.09.6.25.16.16.25.37.25.6s-.09.44-.25.6c-.16.16-.37.25-.6.25ZM1156.22,914.09h-6.73c-.11,0-.22-.02-.33-.06-.1-.04-.2-.1-.28-.18-.08-.08-.14-.17-.19-.28-.05-.1-.07-.21-.07-.33,0-.11.02-.22.06-.32.04-.1.1-.19.18-.27s.17-.14.27-.18c.1-.04.21-.06.32-.06h6.73c.22,0,.44.09.6.25.16.16.25.37.25.6s-.09.44-.25.6c-.16.16-.37.25-.6.25h.05Z"/>
  <path class="st17" d="M1168.95,1152.17c-.22,0-.44-.09-.6-.25-.16-.16-.25-.37-.25-.6s.09-.44.25-.59.37-.25.6-.25h6.73c.23,0,.45.08.62.24.17.16.27.37.27.6,0,.11-.01.22-.05.32-.04.1-.1.2-.17.27-.07.08-.16.14-.27.18-.1.04-.21.06-.32.06v-.84.84h-6.81ZM1162.22,1152.17h-6.73c-.22,0-.44-.09-.6-.25-.16-.16-.25-.37-.25-.6s.09-.44.25-.59.37-.25.6-.25h6.73c.22,0,.44.09.59.25.16.16.25.37.25.59s-.09.44-.25.6c-.16.16-.37.25-.59.25ZM1148.77,1152.17h-6.73c-.22,0-.44-.09-.6-.25-.16-.16-.25-.37-.25-.6s.09-.44.25-.59.37-.25.6-.25h6.73c.22,0,.44.09.59.25.16.16.25.37.25.59s-.09.44-.25.6c-.16.16-.37.25-.59.25ZM1135.31,1152.17h-6.73c-.22,0-.44-.09-.6-.25-.16-.16-.25-.37-.25-.6s.09-.44.25-.59.37-.25.6-.25h6.73c.22,0,.44.09.59.25.16.16.25.37.25.59s-.09.44-.25.6c-.16.16-.37.25-.59.25ZM1121.85,1152.17h-6.73c-.22,0-.44-.09-.6-.25-.16-.16-.25-.37-.25-.6s.09-.44.25-.59.37-.25.6-.25h6.73c.22,0,.44.09.59.25.16.16.25.37.25.59s-.09.44-.25.6c-.16.16-.37.25-.59.25ZM1108.39,1152.17h-.24c-2.34,0-4.63-.63-6.64-1.82-.1-.05-.18-.13-.25-.22-.07-.09-.12-.19-.15-.3-.03-.11-.04-.22-.02-.33.02-.11.05-.22.11-.31s.13-.18.22-.25c.09-.07.19-.11.3-.14.11-.03.22-.03.33-.01.11.02.22.06.31.11,1.75,1.04,3.75,1.58,5.79,1.58h.24c.22,0,.44.09.59.25.16.16.25.37.25.59s-.09.44-.25.6c-.16.16-.37.25-.59.25ZM1182.41,1150.28c-.18,0-.36-.06-.5-.17-.14-.11-.25-.26-.3-.44-.05-.17-.04-.36.02-.53.06-.17.18-.31.33-.41,1.78-1.13,3.22-2.73,4.14-4.63.1-.2.27-.35.48-.43.21-.07.44-.06.64.04.2.1.35.27.43.48.07.21.06.44-.04.64-1.07,2.18-2.71,4.02-4.76,5.32-.09.06-.2.11-.31.13-.11.02-.22.02-.33,0h.2ZM1097.33,1145.61c-.15,0-.3-.04-.43-.12-.13-.08-.24-.2-.31-.33-.96-1.85-1.46-3.9-1.46-5.99v-.99c0-.11.03-.22.08-.32s.12-.19.2-.26c.09-.07.19-.13.29-.16.11-.03.22-.04.33-.03.11,0,.22.04.32.09.1.05.19.12.26.21.07.08.13.18.16.29.03.11.05.22.04.33-.02.29-.02.57,0,.86,0,1.82.44,3.6,1.28,5.21.1.2.12.43.05.64-.07.21-.21.39-.41.49-.18.1-.4.14-.61.1h.2ZM1188.57,1138.88h-.17c-.22-.05-.41-.18-.53-.36s-.17-.41-.13-.63l1.35-6.63c.04-.22.17-.42.37-.54.19-.13.42-.17.64-.13.22.05.42.18.54.37.13.19.17.42.13.64l-1.35,6.63c-.03.11-.08.21-.14.3-.07.09-.15.16-.25.22-.1.06-.2.09-.31.1-.11.01-.22,0-.33-.03l.17.07ZM1097.24,1132.5h-.17c-.11-.02-.21-.06-.31-.12-.09-.06-.17-.14-.23-.23-.06-.09-.1-.2-.12-.31-.02-.11-.02-.22,0-.33l1.14-6.73c.02-.11.06-.21.12-.31s.14-.17.23-.23c.09-.06.2-.1.31-.12.11-.02.22-.02.33,0,.11.02.21.07.3.13.09.06.17.14.23.23.06.09.1.2.12.3.02.11.02.22,0,.33l-1.35,6.61c-.03.2-.13.38-.28.5-.15.13-.34.2-.54.2l.2.07ZM1191.26,1125.64h-.17c-.11-.02-.21-.06-.3-.13-.09-.06-.17-.14-.23-.23-.06-.09-.1-.2-.12-.3-.02-.11-.02-.22,0-.33l1.33-6.63c.02-.11.07-.22.13-.31.06-.09.14-.17.24-.24.09-.06.2-.11.31-.13s.22-.02.33,0c.11.02.22.07.31.13.09.06.17.14.24.24.06.09.11.2.13.31.02.11.02.23,0,.33l-1.33,6.61c-.03.11-.08.21-.15.3-.07.09-.15.16-.25.22-.1.06-.21.09-.32.11-.11.02-.23,0-.34-.03l.2.07ZM1099.92,1119.26h-.17c-.11-.02-.21-.06-.3-.13-.09-.06-.17-.14-.23-.23-.06-.09-.1-.2-.12-.3-.02-.11-.02-.22,0-.33l1.35-6.63c.02-.11.07-.21.13-.3.06-.09.14-.17.23-.23s.2-.1.3-.12c.11-.02.22-.02.33,0,.22.05.41.18.53.37.12.19.17.41.13.63l-1.35,6.63c-.03.11-.08.21-.14.3-.07.09-.15.16-.25.22-.1.06-.2.09-.31.1s-.22,0-.33-.03l.2.07ZM1193.93,1112.38h-.17c-.11-.02-.21-.06-.3-.13-.09-.06-.17-.14-.23-.23-.06-.09-.1-.2-.12-.3-.02-.11-.02-.22,0-.33l1.35-6.61c.04-.22.17-.42.37-.54.19-.13.42-.17.64-.13.22.05.42.18.54.37.13.19.17.42.13.64l-1.35,6.61c-.03.11-.08.21-.15.3-.07.09-.16.16-.26.22-.1.06-.21.09-.32.1-.11.01-.23,0-.33-.03l.2.07ZM1102.61,1106.02h-.17c-.11-.02-.21-.06-.3-.13-.09-.06-.17-.14-.23-.23-.06-.09-.1-.2-.12-.3-.02-.11-.02-.22,0-.33l1.33-6.63c.05-.22.18-.41.36-.53.19-.12.41-.17.63-.13.11.02.21.06.31.12.09.06.17.14.23.23.06.09.1.2.12.31s.02.22,0,.33l-1.33,6.63c-.06.21-.21.39-.4.5-.19.11-.42.14-.63.09l.2.07ZM1196.62,1099.14h-.17c-.11-.02-.21-.06-.3-.13-.09-.06-.17-.14-.23-.23-.06-.09-.1-.2-.12-.3-.02-.11-.02-.22,0-.33l1.33-6.63c.05-.22.18-.41.36-.53.19-.12.41-.17.63-.13.11.02.21.07.3.13.09.06.17.14.23.23.06.09.1.2.12.3.02.11.02.22,0,.33l-1.33,6.63c-.06.21-.2.4-.39.51-.19.11-.42.14-.63.08l.2.07ZM1105.28,1092.77h-.17c-.11-.02-.21-.06-.3-.13-.09-.06-.17-.14-.23-.23-.06-.09-.1-.2-.12-.3-.02-.11-.02-.22,0-.33l1.35-6.61c.02-.11.06-.21.12-.31.06-.09.14-.17.23-.23.09-.06.2-.1.31-.12.11-.02.22-.02.33,0,.11.02.21.07.3.13.09.06.17.14.23.23.06.09.1.2.12.3.02.11.02.22,0,.33l-1.35,6.61c-.06.21-.2.4-.39.51-.19.11-.42.14-.63.08l.2.07ZM1199.3,1085.91h-.17c-.11-.02-.21-.06-.3-.13-.09-.06-.17-.14-.23-.23-.06-.09-.1-.2-.12-.3-.02-.11-.02-.22,0-.33l1.35-6.63c.02-.11.07-.21.13-.3.06-.09.14-.17.23-.23.09-.06.2-.1.3-.12.11-.02.22-.02.33,0,.11.02.21.07.3.13.09.06.17.14.23.23.06.09.1.2.12.3.02.11.02.22,0,.33l-1.35,6.63c-.06.21-.21.39-.4.5-.19.11-.42.14-.63.09l.2.07ZM1107.97,1079.53h-.32c-.11-.02-.21-.06-.31-.12-.09-.06-.17-.14-.23-.23-.06-.09-.1-.2-.12-.31-.02-.11-.02-.22,0-.33l1.33-6.63c.05-.21.18-.4.37-.52.19-.12.41-.17.63-.13.11.02.21.07.3.13.09.06.17.14.23.23.06.09.1.2.12.3.02.11.02.22,0,.33l-1.33,6.63c-.06.18-.17.34-.33.45-.16.11-.35.16-.54.14l.2.07ZM1201.69,1072.63c-.11,0-.22-.03-.32-.08-.1-.05-.19-.12-.26-.2-.07-.08-.13-.18-.16-.28-.03-.1-.05-.21-.04-.32v-.82c0-1.83-.44-3.63-1.3-5.25-.05-.1-.08-.21-.09-.32-.01-.11,0-.22.03-.33.03-.11.09-.21.16-.29.07-.09.16-.16.26-.21.1-.05.21-.08.32-.09.11-.01.22,0,.33.04.11.03.21.09.29.16.09.07.16.16.21.26.97,1.87,1.48,3.94,1.48,6.04.02.31.02.63,0,.94,0,.11-.04.22-.08.32-.05.1-.12.19-.21.26-.08.07-.18.13-.29.16-.11.03-.22.04-.33.03h0ZM1110.85,1066.41c-.13,0-.26-.03-.37-.1-.1-.05-.19-.12-.26-.2-.07-.08-.13-.18-.16-.28-.04-.1-.05-.22-.04-.33,0-.11.04-.22.08-.32,1.07-2.17,2.72-4,4.78-5.28.09-.06.2-.1.31-.12.11-.02.22-.02.33,0,.11.03.21.07.3.14.09.07.16.15.22.24.11.19.15.42.1.64-.05.22-.18.41-.37.52-1.79,1.12-3.24,2.71-4.17,4.61-.08.13-.19.24-.32.31-.13.07-.28.1-.43.1l.02.07ZM1195.73,1061.36c-.15,0-.3-.04-.42-.12-1.74-1.03-3.73-1.57-5.75-1.56h-.27c-.22,0-.44-.09-.6-.25-.16-.16-.25-.37-.25-.6s.09-.44.25-.59c.16-.16.37-.25.6-.25h.27c2.32,0,4.61.62,6.61,1.8.19.12.32.3.38.51.05.21.02.44-.09.63-.09.1-.21.18-.34.23-.13.05-.27.06-.4.04l.02.15ZM1182.53,1059.68h-6.73c-.22,0-.44-.09-.6-.25s-.25-.37-.25-.6.09-.44.25-.59.37-.25.6-.25h6.73c.22,0,.44.09.59.25.16.16.25.37.25.59s-.09.44-.25.6c-.16.16-.37.25-.59.25ZM1169.07,1059.68h-6.73c-.22,0-.44-.09-.6-.25s-.25-.37-.25-.6.09-.44.25-.59.37-.25.6-.25h6.73c.22,0,.44.09.59.25.16.16.25.37.25.59s-.09.44-.25.6c-.16.16-.37.25-.59.25ZM1155.61,1059.68h-6.73c-.22,0-.44-.09-.6-.25s-.25-.37-.25-.6.09-.44.25-.59.37-.25.6-.25h6.73c.22,0,.44.09.59.25.16.16.25.37.25.59s-.09.44-.25.6c-.16.16-.37.25-.59.25ZM1142.16,1059.68h-6.73c-.22,0-.44-.09-.6-.25s-.25-.37-.25-.6.09-.44.25-.59.37-.25.6-.25h6.73c.22,0,.44.09.59.25.16.16.25.37.25.59s-.09.44-.25.6c-.16.16-.37.25-.59.25ZM1128.7,1059.68h-6.73c-.11,0-.22-.02-.33-.06-.1-.04-.2-.1-.28-.18-.08-.08-.14-.17-.19-.28-.04-.1-.07-.21-.07-.33,0-.12.03-.23.08-.34.05-.11.12-.2.21-.28.09-.08.19-.14.3-.18.11-.04.23-.05.35-.04h6.63c.22,0,.44.09.59.25.16.16.25.37.25.59s-.09.44-.25.6c-.16.16-.37.25-.59.25h.02Z"/>
  <path class="st11" d="M1263.07,1007.79l-67.29,22.59c-1.33.43-2.77.32-4.01-.31-1.24-.63-2.18-1.73-2.62-3.05l-22.59-67.29c-.43-1.32-.32-2.77.31-4.01.63-1.24,1.73-2.18,3.05-2.62l67.29-22.59c1.33-.43,2.77-.32,4.01.31,1.24.63,2.19,1.73,2.62,3.05l22.59,67.29c.41,1.33.29,2.76-.34,4-.63,1.24-1.71,2.18-3.03,2.63h0Z"/>
  <path class="st11" d="M1263.07,1007.79l-67.29,22.59c-1.33.43-2.77.32-4.01-.31-1.24-.63-2.18-1.73-2.62-3.05l-22.59-67.29c-.43-1.32-.32-2.77.31-4.01.63-1.24,1.73-2.18,3.05-2.62l67.29-22.59c1.33-.43,2.77-.32,4.01.31,1.24.63,2.19,1.73,2.62,3.05l22.59,67.29c.41,1.33.29,2.76-.34,4-.63,1.24-1.71,2.18-3.03,2.63h0Z"/>
  <path class="st2" d="M1272.99,1013.61l-81.57,27.4c-1.6.53-3.34.41-4.84-.34-1.51-.75-2.65-2.06-3.2-3.66l-27.4-81.57c-.53-1.6-.4-3.34.34-4.84.75-1.51,2.07-2.65,3.66-3.2l81.57-27.4c1.6-.53,3.34-.4,4.84.35,1.51.75,2.66,2.06,3.2,3.66l27.4,81.57c.5,1.6.37,3.33-.38,4.83-.75,1.5-2.04,2.65-3.62,3.21h0Z"/>
  <path class="st11" d="M1263.07,1007.79l-67.29,22.59c-1.33.43-2.77.32-4.01-.31-1.24-.63-2.18-1.73-2.62-3.05l-22.59-67.29c-.43-1.32-.32-2.77.31-4.01.63-1.24,1.73-2.18,3.05-2.62l67.29-22.59c1.33-.43,2.77-.32,4.01.31,1.24.63,2.19,1.73,2.62,3.05l22.59,67.29c.41,1.33.29,2.76-.34,4-.63,1.24-1.71,2.18-3.03,2.63h0Z"/>
  <path class="st5" d="M1211.95,967.9c1.35-.45,2.54-1.3,3.42-2.43.87-1.13,1.39-2.49,1.49-3.92.1-1.42-.23-2.84-.94-4.08-.71-1.24-1.77-2.24-3.05-2.87-1.28-.64-2.72-.88-4.13-.7-1.41.18-2.75.78-3.82,1.72-1.08.94-1.85,2.17-2.22,3.55-.37,1.38-.33,2.84.12,4.19.61,1.81,1.92,3.31,3.63,4.15,1.71.85,3.69.99,5.5.39h0Z"/>
  <path class="st5" d="M1189.22,1027.22l-6.22-18.5,19.56-28.19c.38-.54.93-.94,1.57-1.14s1.32-.16,1.93.08l11.77,4.9,13.46-20.54c.38-.57.95-.99,1.6-1.19.66-.2,1.36-.17,2,.09l21.43,8.92,10.09,29.86c.43,1.32.32,2.77-.31,4.01-.63,1.24-1.73,2.18-3.05,2.62l-67.17,22.46c-1.33.38-2.75.24-3.99-.38-1.23-.62-2.19-1.69-2.67-2.98h0Z"/>
  <path class="st18" d="M1166.26,1197.99l12.5-132.89,9.3-31.34c.45-1.16,5.48-15.54,7.47-22.68.3-1.05.23-2.18-.19-3.19-.42-1.01-1.17-1.85-2.13-2.38h0c-1.09-.59-2.36-.75-3.55-.44-1.2.31-2.23,1.07-2.89,2.12l-4.95,7.67c-.47.44-1.04.75-1.67.91-.62.16-1.27.18-1.9.03-.63-.14-1.21-.44-1.69-.86-.49-.42-.86-.95-1.1-1.55l-10.6-32.8-2.93.52c-1.34.23-2.56.92-3.44,1.94-.88,1.03-1.38,2.33-1.41,3.69l-.12,2.52c-.15.63-.45,1.21-.87,1.7-.42.49-.95.87-1.55,1.11l-1.87.69c-2.69,1.14-3.84,4.34-3.95,7.28l.1,2.73c0,.7-.24,1.39-.68,1.94-.44.55-1.05.93-1.74,1.09h0c-1.41.14-2.71.83-3.62,1.92-.91,1.1-1.34,2.5-1.21,3.92l-.24,5.27-.2.22c-1.51.93-2.68,2.32-3.34,3.97-.66,1.65-.78,3.46-.33,5.18l10.36,44.16-34.65,129.52c-1.7,6.36-1.01,13.12,1.93,19.01l62.39,124.61,63.75-49.47-75.01-96.13Z"/>
  <path class="st11" d="M1362.6,1449.57l54.48,64.63,44.83-49.51-56.17-94.89-79.97-22.32-53.22-13.39-69.86-89.46-53.96,41.46,66.06,131.69,8.63,158.58,204.06,68.03-22.44-144.48-42.44-50.35Z"/>
  <path class="st23" d="M1350.05,1254.44l7.5,61.55c.32,2.42,1.41,4.68,3.1,6.44,1.7,1.76,3.9,2.95,6.31,3.38l5.33,19.08s-72.42-3.36-75.54-4.83l-12.26-2.99c4.36-1.68,8.58-9.86,8.7-14.37l1.19-74.12,55.68,5.85Z"/>
  <path class="st23" d="M1290.82,1310.86l2.81.84c4.82,1.37,9.86,1.78,14.83,1.2,4.98-.58,9.79-2.13,14.16-4.57,4.38-2.44,8.23-5.71,11.33-9.64,3.11-3.93,5.41-8.43,6.78-13.25l14.6-51.56c.45-1.61.59-3.3.4-4.96-.2-1.66-.72-3.27-1.55-4.74-.81-1.46-1.92-2.75-3.23-3.78-1.31-1.03-2.83-1.8-4.44-2.25l-48.21-13.81c-2.09-.59-4.28-.77-6.43-.52-2.16.25-4.24.93-6.14,1.99-1.9,1.06-3.56,2.48-4.91,4.19-1.35,1.7-2.34,3.66-2.94,5.75l-13.56,47.92c-2.65,9.75-1.36,20.15,3.59,28.96,4.95,8.81,13.16,15.32,22.87,18.14"/>
  <path class="st23" d="M1268.16,1250.94c-3.24,2.9-6.21,6.09-8.88,9.52-2.76,4.02,5.2,6.07,5.2,6.07l3.68-15.59Z"/>
  <g class="st13">
    <path class="st7" d="M1358.88,1282.62h-5.85l6.21,12.38-.35-12.38Z"/>
  </g>
  <g class="st13">
    <path class="st7" d="M1307.19,1313.03s-8.19.69-13.89-1.51l-.12,10.6,14.01-9.08Z"/>
  </g>
  <path class="st8" d="M1263.27,1278.27c4.87.12,9.59-1.69,13.12-5.05.15-.16.23-.37.23-.59,0-.22-.09-.43-.24-.59-.15-.16-.36-.25-.58-.26-.22-.01-.43.07-.6.21-3.3,3-7.62,4.64-12.08,4.58l.15,1.7Z"/>
  <path d="M1316.93,1251.95s12.77,35.04-7.42,57.43c-11.32,12.48-79.63,107.08,68.19,134.23,13.02,2.47,26.34,2.96,39.5,1.45,35.21-4.31,52.68-21.11,53.44-37.36,2.57-40.47-52.26-55.09-55.41-91.69-1.93-22.57,10.95-115.04-50.94-136.79-58.44-20.56-92.52,12.18-91.91,24.02.61,11.84-1.56,28.5,44.54,48.71Z"/>
  <path class="st23" d="M1313.4,1274.25s16.45.67,19.33-15.59c2.88-16.27-17.36-18.64-19.6-2.15l-1.09,17.98,1.36-.24Z"/>
  <path class="st2" d="M1313.94,1254.27l.5-2.34-44.36-14.2-.5,2.35,44.36,14.18Z"/>
  <path class="st2" d="M1267.21,1251.43c.22-.04.43-.14.6-.29.17-.15.29-.35.36-.57l6.02-21.13c.05-.15.06-.31.04-.46-.02-.16-.07-.31-.14-.44-.08-.14-.18-.26-.31-.35-.12-.09-.27-.16-.42-.2-.31-.08-.63-.04-.91.11-.28.15-.48.41-.57.71l-5.99,21.13c-.04.15-.06.31-.04.47.02.16.07.31.14.45.08.14.18.26.3.35.12.1.27.17.42.21.17.03.35.03.52,0"/>
  <path d="M1314.84,1250.94c-1.11,3.14-1.77,6.43-1.95,9.76-.05.53-.3,1.03-.71,1.37-.41.35-.94.52-1.47.48h0c-.53-.05-1.01-.3-1.36-.71-.34-.4-.52-.92-.49-1.45l1.04-14.4,4.95,4.95Z"/>
  <path d="M1328.97,1250.05c-.47-.62-1.08-1.12-1.77-1.46-.69-.34-1.46-.52-2.24-.52s-1.54.18-2.24.52c-.69.34-1.3.84-1.77,1.46-1.31,1.42-2.23,3.16-2.67,5.05l-.54,1.68c-.03.23.03.46.17.64.13.19.33.32.55.37.22.05.46.03.66-.08.2-.11.36-.28.44-.5l.54-1.68c.41-1.56,1.16-3.01,2.2-4.24.29-.44.68-.8,1.14-1.05.46-.25.98-.38,1.51-.38s1.04.13,1.51.38c.46.25.85.61,1.14,1.05.09.09.19.15.3.2.11.05.23.07.35.07s.24-.02.35-.07c.11-.05.22-.11.3-.2.09-.08.16-.19.21-.3.05-.11.07-.23.07-.36s-.03-.24-.07-.36c-.05-.11-.12-.21-.21-.3"/>
  <path class="st11" d="M1322.48,1267.76c-.08-.64-.34-1.24-.76-1.72-.42-.49-.97-.84-1.59-1.01-.62-.17-1.27-.16-1.88.05-.61.2-1.15.58-1.54,1.08-.4.51-.63,1.12-.68,1.76-.05.64.1,1.28.41,1.84.32.56.79,1.01,1.36,1.3.57.29,1.22.4,1.86.32.85-.1,1.63-.55,2.16-1.22.53-.68.77-1.54.66-2.39"/>
  <g class="st13">
    <path class="st7" d="M1318.16,1271.03c.47-.01.94-.12,1.37-.31.43-.19.82-.47,1.14-.81.32-.34.57-.75.74-1.19.16-.44.24-.92.22-1.39-.07-.65-.31-1.27-.69-1.8.44.29.8.68,1.07,1.13.27.45.44.95.49,1.48.02.43-.04.87-.19,1.28-.15.41-.38.78-.68,1.1-.3.31-.66.57-1.06.74-.4.17-.83.26-1.26.26-.69.07-1.38-.13-1.93-.56.32,0,.62,0,.79.1"/>
  </g>
  <path class="st7" d="M1320.38,1273.16s-2.99.76-4,.91c-1.01.15-4.34.34-4.34.34,0,0,4.19,5.67,8.41,6.85-.07-.03.17-5.84-.07-8.09Z"/>
  <path class="st18" d="M1629.12,1390.71c.54-.53.87-1.25.93-2.01.03-.76-.2-1.51-.67-2.11-.44-.59-1.08-.99-1.8-1.1-.72-.12-1.48.06-2.07.48l-17.23,13.61s12.85-12.99,18.5-18.5c.66-.67,1.04-1.56,1.06-2.5.02-.94-.32-1.85-.94-2.55-.56-.55-1.3-.87-2.07-.92-.79-.05-1.55.19-2.17.67l-19.34,15.98s9.74-11.86,13.98-16.97c.25-.3.45-.65.57-1.03.12-.38.17-.77.13-1.17-.05-.39-.15-.78-.34-1.13-.19-.35-.44-.66-.74-.92-.59-.48-1.35-.71-2.1-.67-.77.05-1.48.37-2.02.92l-24.59,25.47c-.62.87-2.25.62-1.24-.99,1.51-2.42,2.81-4.97,3.87-7.62,1.24-3.62.87-6.86-2.62-8.61-.22-.05-.45-.03-.66.06s-.37.25-.47.44l-11.24,13.98c-2.46,3.6-4.51,7.45-6.12,11.49l-4.37,10.87-3.5,9.81-78.4,71.42-21.5-32.31-44.83,49.51,28.76,37.86c2.57,3.4,5.89,6.18,9.69,8.14,3.78,1.96,7.97,3.05,12.23,3.19,4.27.14,8.51-.67,12.43-2.38,3.9-1.71,7.4-4.27,10.19-7.49l100.26-115.41,37.56-37.81c.37-.42.61-.96.64-1.52.05-.56-.08-1.13-.39-1.61-.34-.45-.82-.76-1.38-.88-.56-.12-1.13-.02-1.61.26l-10.87,8.61s9.44-10.06,14.48-14.55Z"/>
  <path class="st7" d="M1214.79,1417.78l14.82,22.49,8.19,140.91-14.38-4.81-8.63-158.59Z"/>
  <path class="st7" d="M1272.5,1334.09l-19.73-3.65-97.18-126.7,15.98-145.03s21.78-41.62,21.7-53.17l.89.74c.69.57,1.2,1.34,1.45,2.2.25.86.25,1.78-.02,2.63l-16.82,54.01-12.5,132.89,106.23,136.09Z"/>
  <path class="st7" d="M1405.04,1499.91l-8.28-61.1,27.54,67.4-7.22,7.97-12.04-14.28Z"/>
  <path class="st10" d="M1268.84,1574.82c-.03.46-.23.89-.55,1.21-.32.32-.76.52-1.21.55h-12.16c-.44-.05-.85-.26-1.16-.58-.31-.32-.49-.74-.52-1.19.05-.43.24-.83.55-1.14s.71-.5,1.14-.54h12.16c1.09-.08,2.07.77,1.77,1.68Z"/>
  <path class="st10" d="M1288.01,1422.94c-.05.44-.26.85-.58,1.16-.32.31-.74.49-1.19.52h-12.16c-.45-.03-.87-.21-1.19-.52-.32-.31-.53-.72-.58-1.16.05-.44.25-.85.58-1.16.32-.31.74-.49,1.19-.52h12.16c1.11-.08,1.98.79,1.77,1.68Z"/>
  <path class="st10" d="M1255.51,1450.56c-.03.45-.21.87-.52,1.19-.31.32-.72.53-1.16.58h-12.16c-.44-.05-.85-.25-1.16-.58-.31-.32-.49-.74-.52-1.19h0c.05-.43.24-.83.55-1.14.31-.31.71-.5,1.14-.55h12.16c1.01-.08,1.85.79,1.68,1.68Z"/>
  <path class="st10" d="M1363.73,1463.11c-.05.44-.25.85-.57,1.16-.34.31-.76.49-1.19.52h-12.08c-.44-.03-.86-.21-1.19-.52-.32-.31-.52-.72-.57-1.16h0c.05-.44.25-.85.57-1.16.34-.31.76-.49,1.19-.52h12.16c1.01-.08,1.9.79,1.68,1.68Z"/>
  <path class="st10" d="M1389.98,1520.22c-.05.43-.24.83-.54,1.14-.32.31-.71.5-1.14.55h-12.16c-.44-.05-.82-.24-1.14-.55-.3-.31-.49-.71-.54-1.14h0c.03-.44.22-.86.52-1.19.3-.32.72-.53,1.16-.58h12.16c1.01-.05,1.95.89,1.68,1.77Z"/>
  <path class="st10" d="M1340.83,1595.33c-.05.43-.24.83-.54,1.14-.32.31-.71.5-1.14.55h-12.16c-.45-.03-.87-.21-1.19-.52-.32-.31-.53-.72-.58-1.16h0c.03-.46.23-.89.55-1.21.32-.32.76-.52,1.21-.55h12.16c1.01,0,1.9.89,1.68,1.77Z"/>
  <path class="st10" d="M1268.84,1355.69c-.03.46-.23.89-.55,1.21s-.76.52-1.21.55h-12.16c-.44-.05-.85-.26-1.16-.58-.31-.32-.49-.74-.52-1.19h0c.05-.43.24-.83.55-1.14.31-.31.71-.5,1.14-.54h12.16c1.09-.08,2.07.79,1.77,1.68Z"/>
  <path class="st10" d="M1196.24,1327.26c-.05.43-.24.83-.55,1.14-.3.31-.71.5-1.14.55h-12.16c-.43-.05-.83-.24-1.14-.55-.31-.31-.5-.71-.55-1.14h0c.05-.43.24-.83.55-1.14.31-.31.71-.5,1.14-.55h12.16c1.03-.08,1.9.79,1.68,1.68Z"/>
  <path class="st10" d="M1225.61,1368.04c-.05.43-.24.83-.54,1.14-.31.31-.71.5-1.14.55h-12.16c-.45-.03-.87-.21-1.19-.52-.32-.31-.53-.72-.58-1.16h0c.03-.46.23-.89.55-1.21.32-.32.76-.52,1.21-.55h12.16c1.01,0,1.9.89,1.68,1.77Z"/>
  <path class="st10" d="M1214.07,1293.23c-.03.45-.21.87-.52,1.19-.31.32-.72.53-1.16.58h-12.21c-.46-.03-.89-.23-1.21-.55-.33-.32-.52-.76-.55-1.21h0c.05-.44.26-.85.58-1.16.32-.31.74-.49,1.19-.52h12.16c1.08-.08,1.95.81,1.73,1.68Z"/>
  <path class="st10" d="M1332.25,1530.75c-.44.14-.91.13-1.33-.05-.43-.17-.78-.49-.99-.9l-4.73-11.2c-.14-.44-.13-.91.05-1.33.17-.43.49-.78.9-.99h0c.44-.14.91-.13,1.33.04.43.17.78.49.99.9l4.73,11.2c.1.21.16.44.17.68,0,.24-.03.47-.12.69-.09.22-.22.42-.39.58-.17.16-.37.29-.6.37h0Z"/>
  <path class="st10" d="M1313.95,1444.72c-.19-.42-.23-.9-.09-1.34.13-.44.42-.82.82-1.07l10.7-5.77c.42-.19.9-.23,1.34-.09.44.13.82.42,1.07.82.19.42.23.9.09,1.34-.13.44-.42.82-.82,1.07l-10.7,5.77c-.2.12-.43.2-.66.24-.23.03-.47.01-.7-.06-.23-.07-.44-.19-.62-.34-.18-.15-.32-.35-.42-.56h0Z"/>
  <path class="st10" d="M1293.23,1490.9c-.19-.42-.23-.9-.09-1.34.13-.44.42-.82.82-1.07l10.7-5.77c.42-.19.89-.23,1.34-.09.44.13.82.42,1.06.82.19.42.23.9.09,1.34-.13.44-.42.82-.81,1.07l-10.7,5.77c-.2.12-.43.21-.66.24-.24.03-.47.01-.7-.06-.23-.07-.44-.19-.62-.34-.18-.15-.32-.35-.42-.56h0Z"/>
  <path class="st10" d="M1172.94,1301.03c-.46-.05-.89-.27-1.2-.62-.31-.35-.48-.8-.48-1.27l.77-12.15c.05-.46.27-.89.62-1.2.35-.31.8-.48,1.27-.48h0c.46.05.89.27,1.2.62.31.35.48.8.48,1.26l-.77,12.15c-.08,1.13-1.01,1.95-1.88,1.68Z"/>
  <path class="st10" d="M1240.76,1399.61c-.19-.42-.23-.9-.09-1.34.13-.44.42-.82.82-1.07l10.7-5.77c.42-.19.9-.23,1.34-.09s.82.42,1.07.82h0c.19.42.23.9.09,1.34-.13.44-.42.82-.82,1.07l-10.7,5.77c-.2.12-.43.2-.66.23-.24.03-.47.01-.7-.06-.23-.07-.44-.18-.62-.34-.18-.16-.32-.35-.42-.56h0Z"/>
  <path class="st10" d="M1372.46,1608.8c-.19-.42-.22-.9-.08-1.34.12-.44.42-.82.81-1.07l10.7-5.77c.42-.19.89-.23,1.35-.09.44.13.81.42,1.06.82h0c.19.42.22.9.08,1.34-.12.44-.42.82-.81,1.07l-10.7,5.77c-.2.12-.42.2-.66.24-.24.03-.49.01-.71-.06-.24-.07-.44-.19-.62-.34-.17-.15-.32-.35-.42-.56Z"/>
  <path class="st10" d="M1306.75,1552.4c.22.4.29.87.19,1.32-.1.45-.36.85-.73,1.12l-10.24,6.56c-.4.22-.87.29-1.32.19-.45-.1-.84-.36-1.12-.72-.22-.4-.29-.87-.19-1.32.1-.45.36-.85.73-1.12l10.24-6.56c.19-.14.41-.23.64-.28.23-.05.47-.05.7,0,.23.05.45.15.64.29.19.14.35.32.46.52Z"/>
  <path class="st10" d="M1260.16,1530.17c-.4.22-.87.29-1.33.2-.45-.09-.85-.35-1.13-.72l-6.73-10.19c-.22-.4-.29-.87-.2-1.32.1-.45.35-.85.72-1.13h0c.4-.22.87-.29,1.32-.2.45.1.85.35,1.13.72l6.73,10.19c.14.19.24.41.29.64.05.23.05.47,0,.7-.05.23-.15.45-.29.64-.14.19-.32.35-.52.47h0Z"/>
  <path class="st10" d="M1224.78,1333.84c-.4.22-.87.29-1.33.2-.45-.1-.85-.35-1.13-.72l-6.64-10.19c-.22-.4-.29-.87-.2-1.33.1-.45.35-.85.72-1.13h0c.4-.22.87-.29,1.33-.2.45.1.85.35,1.13.72l6.73,10.19c.14.2.23.42.27.65.04.24.04.48-.02.71s-.16.45-.31.64c-.15.19-.33.34-.55.45Z"/>
  <path class="st10" d="M1432.63,1469.62c-.4.22-.87.29-1.33.2-.45-.09-.84-.35-1.13-.72l-6.73-10.19c-.22-.4-.29-.87-.2-1.32.1-.45.35-.85.72-1.13.4-.22.87-.29,1.33-.2.45.1.84.35,1.13.72l6.73,10.19c.13.19.24.41.29.64.05.23.05.47,0,.7-.05.23-.15.45-.29.64-.13.19-.32.35-.52.47h0Z"/>
  <path class="st10" d="M1370.66,1572.8c-.4.22-.87.29-1.33.2s-.84-.35-1.13-.72l-6.64-10.19c-.22-.4-.29-.87-.2-1.33.1-.45.35-.85.72-1.13h0c.4-.22.87-.29,1.33-.2.45.1.84.35,1.13.72l6.64,10.19c.13.19.24.41.29.64.05.23.05.47,0,.7-.05.23-.15.45-.29.64-.13.19-.32.35-.52.47h0Z"/>
  <path class="st11" d="M1415.49,1087.13h150.18c1.43,0,2.79.57,3.8,1.58,1.01,1.01,1.58,2.38,1.58,3.81v59.31c0,.71-.13,1.41-.4,2.06-.27.65-.67,1.25-1.18,1.75-.49.5-1.09.89-1.73,1.17-.66.27-1.36.41-2.07.41h-118.81l-31.37,23.68c-.49.34-1.08.55-1.68.59-.61.04-1.19-.08-1.75-.35-.54-.27-.99-.68-1.31-1.19-.34-.51-.52-1.09-.54-1.7v-85.79c0-1.43.57-2.8,1.58-3.81,1.01-1.01,2.37-1.58,3.8-1.58"/>
  <path class="st2" d="M1516.7,1121.42c0,2.23.66,4.41,1.9,6.26,1.24,1.85,2.99,3.3,5.06,4.15,2.05.85,4.32,1.08,6.51.64,2.19-.43,4.19-1.51,5.77-3.09,1.56-1.58,2.64-3.58,3.08-5.77.44-2.19.22-4.45-.64-6.51-.86-2.06-2.3-3.82-4.16-5.06s-4.02-1.9-6.26-1.9c-2.99,0-5.85,1.19-7.97,3.3-2.1,2.11-3.3,4.98-3.3,7.97Z"/>
  <path class="st2" d="M1480.94,1121.42c0,2.23.66,4.41,1.9,6.26,1.24,1.85,2.99,3.3,5.06,4.15,2.05.85,4.32,1.08,6.51.64,2.19-.43,4.19-1.51,5.77-3.09,1.56-1.58,2.64-3.58,3.08-5.77.44-2.19.22-4.45-.64-6.51s-2.3-3.82-4.16-5.06c-1.85-1.24-4.02-1.9-6.26-1.9-2.99,0-5.85,1.19-7.97,3.3-2.1,2.11-3.3,4.98-3.3,7.97Z"/>
  <path class="st2" d="M1445.16,1121.42c0,2.23.66,4.41,1.9,6.26,1.24,1.85,2.99,3.3,5.06,4.15,2.05.85,4.32,1.08,6.51.64,2.19-.43,4.19-1.51,5.77-3.09,1.56-1.58,2.64-3.58,3.08-5.77s.22-4.45-.64-6.51-2.3-3.82-4.15-5.06c-1.85-1.24-4.04-1.9-6.26-1.9-2.99,0-5.85,1.19-7.97,3.3-2.1,2.11-3.3,4.98-3.3,7.97"/>
  <path class="st2" d="M579.51,784.33c43.51,0,78.77-35.27,78.77-78.77s-35.27-78.77-78.77-78.77-78.77,35.27-78.77,78.77,35.27,78.77,78.77,78.77Z"/>
  <path class="st11" d="M612.48,741.25h-65.94c-1.29,0-2.52-.52-3.43-1.43-.91-.91-1.42-2.14-1.43-3.43v-65.94c0-1.29.52-2.52,1.43-3.43.91-.91,2.14-1.42,3.43-1.43h65.94c1.29,0,2.52.52,3.43,1.43.91.91,1.42,2.14,1.43,3.43v65.94c-.02,1.28-.54,2.51-1.45,3.41-.91.91-2.13,1.43-3.41,1.45h0Z"/>
  <path class="st11" d="M612.48,741.25h-65.94c-1.29,0-2.52-.52-3.43-1.43-.91-.91-1.42-2.14-1.43-3.43v-65.94c0-1.29.52-2.52,1.43-3.43.91-.91,2.14-1.42,3.43-1.43h65.94c1.29,0,2.52.52,3.43,1.43.91.91,1.42,2.14,1.43,3.43v65.94c-.02,1.28-.54,2.51-1.45,3.41-.91.91-2.13,1.43-3.41,1.45h0Z"/>
  <path class="st22" d="M612.48,741.25h-65.94c-1.29,0-2.52-.52-3.43-1.43-.91-.91-1.42-2.14-1.43-3.43v-65.94c0-1.29.52-2.52,1.43-3.43.91-.91,2.14-1.42,3.43-1.43h65.94c1.29,0,2.52.52,3.43,1.43.91.91,1.42,2.14,1.43,3.43v65.94c-.02,1.28-.54,2.51-1.45,3.41-.91.91-2.13,1.43-3.41,1.45h0Z"/>
  <path class="st0" d="M579.23,690.91c1.33,0,2.63-.39,3.74-1.13,1.11-.74,1.97-1.79,2.48-3.02.51-1.23.64-2.58.38-3.89s-.9-2.5-1.84-3.45c-.94-.94-2.14-1.58-3.44-1.84-1.31-.26-2.66-.13-3.89.38-1.23.51-2.28,1.37-3.02,2.48-.74,1.11-1.13,2.41-1.13,3.74,0,1.78.71,3.5,1.97,4.76,1.26,1.26,2.97,1.97,4.76,1.97Z"/>
  <path class="st0" d="M541.68,736.42v-18.18l25.59-19.04c.49-.35,1.09-.54,1.7-.52.61.02,1.19.24,1.67.62l8.85,7.79,18-14.1c.51-.39,1.13-.59,1.77-.57.64.02,1.25.25,1.73.67l16.25,14.2v29.27c0,1.29-.52,2.52-1.43,3.43-.91.91-2.14,1.42-3.43,1.43h-65.81c-1.3-.04-2.53-.59-3.44-1.52-.91-.93-1.42-2.18-1.43-3.48h0Z"/>
  <path class="st11" d="M1303.12,541.5c-8.46,0-16.72-2.51-23.76-7.21-7.03-4.7-12.51-11.38-15.75-19.19-3.24-7.81-4.08-16.41-2.43-24.71,1.65-8.29,5.72-15.91,11.7-21.89,5.98-5.98,13.6-10.05,21.89-11.7,8.29-1.65,16.89-.8,24.71,2.43,7.81,3.24,14.49,8.72,19.2,15.75,4.69,7.03,7.2,15.3,7.2,23.76,0,5.62-1.11,11.18-3.25,16.37-2.15,5.19-5.3,9.9-9.27,13.87-3.97,3.97-8.69,7.12-13.87,9.27-5.19,2.15-10.75,3.25-16.37,3.25h0Z"/>
  <path class="st2" d="M1289.73,504.07c.6.02,1.19-.09,1.74-.3.56-.22,1.06-.54,1.49-.96l13.78,8.02c0,.29-.13.56-.13.84,0,1.38.55,2.7,1.52,3.68s2.3,1.52,3.68,1.52,2.7-.55,3.68-1.52c.98-.97,1.52-2.3,1.52-3.68.02-.69-.1-1.37-.35-2.01-.25-.64-.64-1.22-1.12-1.71-.49-.49-1.07-.87-1.71-1.12-.64-.25-1.32-.37-2.01-.35-.6-.02-1.19.09-1.74.3-.55.22-1.06.54-1.49.96l-13.78-8.02c0-.29.13-.56.13-.84.02-.29-.02-.57-.13-.84l13.78-8.02c.89.79,2.04,1.24,3.23,1.26,1.38,0,2.7-.55,3.68-1.52.98-.97,1.52-2.3,1.52-3.68.02-.69-.1-1.37-.35-2.01-.25-.64-.64-1.22-1.12-1.71-.49-.49-1.07-.87-1.71-1.12-.64-.25-1.32-.37-2.01-.35-1.38,0-2.7.55-3.68,1.52-.97.98-1.52,2.3-1.52,3.68-.02.29.03.58.13.84l-13.78,8.02c-.89-.79-2.04-1.23-3.23-1.26-1.38,0-2.7.55-3.68,1.52-.97.98-1.52,2.3-1.52,3.68s.55,2.7,1.52,3.68c.98.98,2.3,1.52,3.68,1.52h0Z"/>
  <path class="st11" d="M1268.89,608.82l73.85,108.43c2.49,3.64,4.12,7.8,4.79,12.15.66,4.36.35,8.81-.93,13.03-1.28,4.22-3.48,8.1-6.44,11.36-2.98,3.26-6.63,5.81-10.72,7.48l-88.9,33.81-17.38-28.18,65.4-34.8-51.04-56.62-52.9-72.99,43.85-9.71c7.56-1.67,15.46-1.04,22.66,1.82,7.2,2.86,13.38,7.81,17.74,14.21h0Z"/>
  <path d="M1074.01,640.32c20.18,7.47,42.4,7.28,62.46-.52,33.36-13.15,48.16-37.38,48.16-37.38l11.24-2.49s-23.55,37.41-61.85,48.34c-43.92,12.52-68.97-3.36-68.97-3.36l8.97-4.59Z"/>
  <path class="st24" d="M1163.92,784.67l59.23-17.75,17.39,28.16s-19.6,8.01-26.76,10.5c-12.16,4.24-23.55-9.91-23.55-9.91l-26.31-11Z"/>
  <path class="st24" d="M1161,789.61c-1.53.69-1.38,1.03-3.03,5.05l-12.78,31.25c-.39.96-.39,2.03,0,2.99.38.96,1.12,1.73,2.06,2.16h0c.94.44,2.02.49,3,.15.98-.34,1.79-1.04,2.27-1.97l13.76-26.17-5.89,23.25c-.16.61-.16,1.24-.02,1.86.14.61.43,1.18.83,1.66.41.48.93.85,1.51,1.08.58.24,1.21.33,1.84.27h0c.74-.06,1.44-.33,2.04-.78.59-.44,1.05-1.04,1.33-1.73l9.74-27.37-7.47,20.69c-.21.57-.27,1.18-.17,1.77.09.6.33,1.16.7,1.64.37.48.85.86,1.4,1.1.55.24,1.16.34,1.76.29h0c.62-.03,1.22-.23,1.74-.56s.95-.8,1.24-1.34l12.77-24.21-8.6,16.49c-.24.44-.37.93-.39,1.43-.01.5.1,1,.32,1.44.22.45.54.84.94,1.14.4.3.87.5,1.36.58h0c.54.09,1.09.05,1.61-.13s.99-.47,1.37-.86l11.69-13.26,9.02-9.62-45.92-8.28Z"/>
  <g class="st13">
    <path class="st7" d="M1190.82,800.63c-.21-.11-.46-.14-.69-.07-.23.07-.42.23-.54.44l-6.9,12.97-1.68,3.26c-.29.52-.42,1.12-.38,1.72.05.6.26,1.17.63,1.64l9.96-18.79c.08-.21.09-.45.02-.66-.07-.22-.22-.4-.42-.51h0Z"/>
  </g>
  <path class="st7" d="M1179.15,801.81c.05-.11.07-.24.07-.36s-.03-.25-.08-.36c-.05-.11-.12-.21-.21-.3-.09-.08-.2-.15-.31-.19-.12-.04-.24-.06-.36-.04-.12.01-.24.05-.35.11-.11.06-.2.14-.28.24-.08.1-.13.21-.16.33l-3.36,9.57,3.36-9.61-3.94,11.12-3.57,10.33c-.09.53-.06,1.07.09,1.58.15.51.4.99.75,1.39.04-.06.08-.12.1-.19l8.24-23.63Z"/>
  <path class="st24" d="M1159.3,791.38l2.29-4.69c.37-.77.99-1.39,1.75-1.78.76-.39,1.63-.51,2.47-.35l38.81,7.07c.66.12,1.28.4,1.8.83.52.43.92.98,1.16,1.6.24.63.32,1.3.22,1.97-.1.66-.36,1.29-.77,1.82l-.12.15-47.6-6.61Z"/>
  <path class="st7" d="M1240.53,795.08l48.53-18.45,10.51,31.99h-8.61l-7.84-24.14-42.59,10.6Z"/>
  <path class="st7" d="M1223.17,766.9l65.38-34.8-58.34-66.71,1.55-1.23,66.14,71.12-65.62,32.36-3.35,1.67-3.3,1.61-2.47-4.02Z"/>
  <path class="st7" d="M1223.17,766.9l17.38,28.18-25.96,10.23c-3.79,1.5-8.03,1.43-11.77-.19l-1.9-.82,8.71-.76,25.11-10.46-15.59-24.91,4.02-1.26Z"/>
  <path class="st25" d="M1250.33,773.38c.48.09.98.03,1.44-.16.45-.2.83-.52,1.1-.93s.41-.9.4-1.39c0-.49-.16-.97-.44-1.38s-.67-.72-1.13-.9c-.46-.18-.96-.22-1.44-.12-.48.1-.92.35-1.26.7-.34.35-.57.8-.66,1.29-.07.32-.07.65,0,.98.07.32.2.63.38.9.19.27.43.5.7.68.28.17.59.29.91.34h0Z"/>
  <path class="st25" d="M1255.31,733.21c.48.09.98.03,1.43-.16.45-.2.84-.52,1.1-.94s.41-.9.4-1.39c0-.49-.16-.97-.44-1.38-.28-.41-.67-.72-1.13-.9-.46-.18-.96-.22-1.44-.12-.48.1-.92.35-1.26.7-.34.35-.57.8-.66,1.29-.07.32-.07.65,0,.98.07.32.2.63.38.9.19.27.43.5.7.67s.59.29.91.34h0Z"/>
  <path class="st25" d="M1285,648.53c.48.09.98.03,1.44-.16.45-.2.84-.52,1.1-.94.27-.41.41-.9.4-1.39,0-.49-.16-.97-.44-1.38-.28-.4-.67-.72-1.13-.9-.46-.18-.96-.22-1.44-.12-.48.1-.92.35-1.26.7-.34.35-.57.8-.66,1.29-.07.32-.07.65,0,.98.07.32.2.63.38.9.19.27.43.5.7.67.28.17.59.29.91.34h0Z"/>
  <path class="st25" d="M1285,694.79c.48.09.98.03,1.44-.16.45-.2.84-.52,1.1-.94.27-.41.41-.9.4-1.39,0-.49-.16-.97-.44-1.38-.28-.4-.67-.72-1.13-.9-.46-.18-.96-.22-1.44-.12-.48.1-.92.35-1.26.7-.34.35-.57.8-.66,1.29-.07.32-.07.65,0,.98.07.32.2.63.38.9.19.27.43.5.7.67.28.17.59.29.91.34h0Z"/>
  <path class="st25" d="M1307.66,726.64c.48.09.98.03,1.44-.16.45-.2.84-.52,1.1-.93.27-.41.41-.9.4-1.39,0-.49-.16-.97-.44-1.38s-.67-.72-1.13-.9c-.46-.18-.96-.22-1.44-.12-.48.1-.92.35-1.26.7-.34.35-.57.8-.66,1.29-.07.32-.07.65,0,.98.07.32.2.63.38.9.19.27.43.5.7.68.28.17.59.29.91.34h0Z"/>
  <path class="st25" d="M1305.17,760.45c.48.09.98.03,1.44-.16.45-.2.84-.52,1.1-.94s.41-.9.4-1.39c0-.49-.16-.97-.44-1.38-.28-.41-.67-.72-1.13-.9-.46-.18-.96-.22-1.44-.12-.48.1-.92.35-1.26.7-.34.35-.57.8-.66,1.29-.07.32-.06.65,0,.98.07.32.2.63.38.9.19.27.43.5.7.67.28.18.59.29.91.34h0Z"/>
  <path class="st25" d="M1277.55,773.38c.48.09.98.03,1.44-.16.45-.2.84-.52,1.1-.93s.41-.9.4-1.39c0-.49-.16-.97-.44-1.38-.28-.41-.67-.72-1.13-.9-.46-.18-.96-.22-1.44-.12-.48.1-.92.35-1.26.7-.34.35-.57.8-.66,1.29-.07.32-.06.65,0,.98.07.32.2.63.38.9.19.27.43.5.7.68.28.17.59.29.91.34h0Z"/>
  <path class="st25" d="M1307.66,692.3c.48.09.98.03,1.44-.16.45-.2.84-.52,1.1-.94.27-.41.41-.9.4-1.39,0-.49-.16-.97-.44-1.38s-.67-.72-1.13-.9c-.46-.18-.96-.22-1.44-.12-.48.1-.92.35-1.26.7-.34.35-.57.8-.66,1.29-.07.32-.07.65,0,.98.07.32.2.63.38.9.19.27.43.5.7.68.28.17.59.29.91.34h0Z"/>
  <path class="st25" d="M1285,754.91c.48.09.98.03,1.44-.16s.84-.52,1.1-.94c.27-.41.41-.9.4-1.39,0-.49-.16-.97-.44-1.38-.28-.41-.67-.72-1.13-.9-.46-.18-.96-.22-1.44-.12-.48.1-.92.35-1.26.7-.34.35-.57.8-.66,1.29-.07.32-.07.65,0,.98.07.32.2.63.38.9.19.27.43.5.7.67.28.18.59.29.91.34h0Z"/>
  <path class="st25" d="M1330.27,733.21c.48.09.98.03,1.44-.16.45-.2.84-.52,1.1-.94s.41-.9.4-1.39c0-.49-.16-.97-.44-1.38-.28-.41-.67-.72-1.13-.9-.46-.18-.96-.22-1.44-.12-.48.1-.92.35-1.26.7-.34.35-.57.8-.66,1.29-.07.32-.07.65,0,.98.07.32.2.63.38.9.19.27.43.5.7.67.28.17.59.29.91.34h0Z"/>
  <path class="st25" d="M1250.33,666.6c.48.09.98.03,1.44-.16.45-.2.83-.52,1.1-.94s.41-.9.4-1.39c0-.49-.16-.97-.44-1.38-.28-.41-.67-.72-1.13-.9-.46-.18-.96-.22-1.44-.12-.48.1-.92.35-1.26.7-.34.35-.57.8-.66,1.29-.07.32-.07.65,0,.98.07.32.2.63.38.9.19.27.43.5.7.67.28.18.59.29.91.34h0Z"/>
  <path class="st25" d="M1250.33,618.86c.48.09.98.03,1.44-.16.45-.2.83-.52,1.1-.94s.41-.9.4-1.39c0-.49-.16-.97-.44-1.38-.28-.41-.67-.72-1.13-.9-.46-.18-.96-.22-1.44-.12-.48.1-.92.35-1.26.7-.34.35-.57.8-.66,1.29-.07.32-.07.65,0,.98.07.32.2.63.38.9.19.27.43.5.7.67.28.18.59.29.91.35h0Z"/>
  <path class="st25" d="M1262.58,800.43c.48.09.98.03,1.44-.16.45-.2.84-.52,1.1-.93.27-.41.41-.9.4-1.39,0-.49-.16-.97-.44-1.38-.28-.41-.67-.72-1.13-.9-.46-.18-.96-.22-1.44-.12-.48.1-.92.35-1.26.7-.34.35-.57.8-.66,1.29-.07.32-.07.65,0,.98.07.32.2.63.38.9.19.27.43.5.7.67s.59.29.91.34h0Z"/>
  <path class="st11" d="M721.54,1506.86h-51.24c-1.32.02-2.59-.47-3.55-1.37-.96-.9-1.53-2.14-1.58-3.46v-52.92c.06-1.32.63-2.56,1.58-3.46.96-.9,2.23-1.39,3.55-1.37h51.27c1.3,0,2.55.5,3.49,1.4.94.9,1.5,2.13,1.55,3.43v52.92c-.06,1.31-.62,2.54-1.56,3.44-.95.9-2.21,1.4-3.52,1.39h0Z"/>
  <path class="st2" d="M690.26,1488.01l-10.53-10.29c-.26-.28-.4-.65-.4-1.03s.14-.75.4-1.03l2.71-2.76c.29-.25.65-.39,1.03-.39s.75.14,1.03.39l6.73,6.63,15.95-16.38c.29-.25.65-.39,1.03-.39s.75.14,1.03.39l2.76,2.71c.26.28.4.65.4,1.03s-.14.75-.4,1.03l-19.7,20.19c-.14.14-.3.25-.48.32-.18.08-.37.11-.57.11s-.39-.04-.57-.11c-.18-.07-.34-.19-.48-.32"/>
  <path class="st2" d="M1737.16,927.36h-134.96c-1.04,0-2.07-.2-3.03-.6-.94-.4-1.82-.98-2.56-1.71-.72-.73-1.31-1.6-1.7-2.56-.4-.96-.61-1.98-.61-3.02v-134.96c0-1.04.19-2.07.59-3.03.39-.96.98-1.84,1.7-2.58.74-.74,1.61-1.32,2.57-1.72.96-.4,1.99-.61,3.03-.61h134.96c2.09,0,4.1.83,5.58,2.31,1.48,1.48,2.3,3.49,2.3,5.58v135.09c-.02,2.08-.86,4.06-2.34,5.52s-3.48,2.28-5.55,2.28Z"/>
  <path class="st19" d="M1664.61,897.47c-3.89,0-7.62-1.55-10.36-4.3-2.76-2.75-4.31-6.48-4.31-10.37v-56.54c0-5.23,2.09-10.25,5.79-13.95,3.7-3.7,8.71-5.78,13.95-5.78h0c2.59,0,5.16.51,7.55,1.5,2.39.99,4.58,2.45,6.41,4.28,1.83,1.83,3.28,4.01,4.27,6.41.99,2.4,1.5,4.96,1.5,7.56v45.05c0,.36-.07.72-.2,1.05-.15.33-.35.64-.61.89-.25.26-.56.46-.89.59-.32.14-.69.21-1.04.21s-.72-.07-1.04-.21c-.34-.14-.64-.34-.89-.59-.25-.25-.45-.56-.61-.89-.13-.33-.2-.69-.2-1.05v-45.05c0-1.87-.37-3.73-1.08-5.46-.72-1.73-1.77-3.31-3.1-4.63-1.33-1.32-2.89-2.38-4.63-3.09-1.73-.71-3.6-1.08-5.47-1.08-1.87,0-3.73.37-5.45,1.08-1.73.72-3.31,1.77-4.63,3.09-1.33,1.32-2.37,2.9-3.1,4.63-.71,1.73-1.08,3.58-1.08,5.46v56.54c.1,2.37,1.11,4.61,2.83,6.25,1.72,1.64,3.99,2.56,6.36,2.56s4.66-.92,6.38-2.56c1.72-1.64,2.73-3.88,2.83-6.25v-43.63c0-1.23-.49-2.42-1.36-3.29-.87-.87-2.05-1.37-3.28-1.37h0c-1.23,0-2.42.5-3.3,1.37-.86.87-1.36,2.06-1.36,3.29v31.17c0,.73-.29,1.42-.81,1.94-.5.51-1.21.8-1.93.8s-1.43-.29-1.93-.8c-.52-.51-.81-1.21-.81-1.94v-31.17c0-2.68,1.06-5.24,2.96-7.14,1.88-1.89,4.46-2.96,7.13-2.96h0c2.67,0,5.25,1.06,7.13,2.96,1.9,1.89,2.96,4.46,2.96,7.14v43.62c-.02,3.87-1.55,7.58-4.27,10.33-2.74,2.75-6.44,4.3-10.31,4.34h0Z"/>
  <path d="M1223.17,766.91l5.37-2.86,18.02,28.58-6.02,2.46-17.36-28.18Z"/>
  <path d="M829.95,851.65l33.54,21.88,4.73-5.33-34.6-21.68-3.67,5.13Z"/>
</svg>